<?xml version="1.0" encoding="utf-8"?>
<!-- Generator: Adobe Illustrator 22.0.1, SVG Export Plug-In . SVG Version: 6.00 Build 0)  -->
<svg version="1.1" id="Layer_1" xmlns="http://www.w3.org/2000/svg" xmlns:xlink="http://www.w3.org/1999/xlink" x="0px" y="0px"
	 viewBox="0 0 121 177" style="enable-background:new 0 0 121 177;" xml:space="preserve">
<style type="text/css">
	.st0{fill:#86929A;}
	.st1{fill:#FFFFFF;}
	.st2{fill:#DADADA;}
	.st3{fill:#00AD68;}
	.st4{fill:#333E48;}
</style>
<title>illo-buy</title>
<desc>Created with Sketch.</desc>
<g id="Design-_x2F__x2F_-Phase-2">
	<g id="illo-buy" transform="translate(0.000000, -1.000000)">
		<g id="Group-45" transform="translate(0.000000, 0.610000)">
			<path id="Fill-1" class="st0" d="M52.1,175.8c1,0,1.6-0.4,1.6-1.2v0c0-0.7-0.6-1.1-1.7-1.1h-2.3v2.3H52.1z M51.7,172.2
				c0.9,0,1.6-0.4,1.6-1.1v0c0-0.7-0.5-1.1-1.5-1.1h-2.1v2.2H51.7z M48.2,168.7H52c1,0,1.7,0.3,2.2,0.7c0.4,0.4,0.6,0.8,0.6,1.4v0
				c0,1-0.6,1.5-1.2,1.9c1,0.3,1.7,0.9,1.7,2v0c0,1.5-1.2,2.3-3.1,2.3h-3.9V168.7z"/>
			<path id="Fill-3" class="st0" d="M56.7,173.5v-4.8h1.5v4.8c0,1.6,0.8,2.4,2.1,2.4c1.3,0,2.1-0.8,2.1-2.3v-4.8h1.5v4.8
				c0,2.5-1.4,3.8-3.6,3.8C58.1,177.2,56.7,176,56.7,173.5"/>
			<polygon id="Fill-5" class="st0" points="68.4,173.8 65.1,168.7 66.8,168.7 69.2,172.4 71.6,168.7 73.2,168.7 69.9,173.7 
				69.9,177.1 68.4,177.1 			"/>
			<path id="Fill-7" class="st1" d="M2.3,149.9c-0.8,0-1.5-0.7-1.5-1.5V2.4c0-0.8,0.7-1.5,1.5-1.5h116c0.8,0,1.5,0.7,1.5,1.5v146
				c0,0.8-0.7,1.5-1.5,1.5H2.3z"/>
			<path id="Fill-9" class="st2" d="M118.3,0.4H2.3c-1.1,0-2,0.9-2,2v146c0,1.1,0.9,2,2,2h116c1.1,0,2-0.9,2-2V2.4
				C120.3,1.3,119.4,0.4,118.3,0.4 M118.3,1.4c0.6,0,1,0.4,1,1v146c0,0.6-0.4,1-1,1H2.3c-0.6,0-1-0.4-1-1V2.4c0-0.6,0.4-1,1-1H118.3
				"/>
			<path id="Fill-11" class="st3" d="M63.2,93.2h-6.7c-0.6,0-1-0.4-1-1c0-0.6,0.4-1,1-1h6.7c0.6,0,1,0.4,1,1
				C64.2,92.7,63.7,93.2,63.2,93.2"/>
			<path id="Fill-13" class="st3" d="M63.2,88h-6.7c-0.6,0-1-0.4-1-1s0.4-1,1-1h6.7c0.6,0,1,0.4,1,1S63.7,88,63.2,88"/>
			<path id="Fill-15" class="st4" d="M53.2,99h13.3V82.9H53.2L53.2,99z M67.5,101H52.2c-0.3,0-0.5-0.1-0.7-0.3
				c-0.2-0.2-0.3-0.4-0.3-0.7l0.1-18.1c0-0.6,0.4-1,1-1h15.2c0.6,0,1,0.4,1,1V100C68.5,100.6,68,101,67.5,101L67.5,101z"/>
			<path id="Fill-17" class="st4" d="M52.6,80.5L52.6,80.5c-0.6,0-1-0.5-1-1l0-1.8c0-2.2,0.6-4.3,1.8-6c0.3-0.5,0.7-0.9,1.1-1.3
				c1-0.9,1.5-4,1.6-5.9c0-0.6,0.5-1,1-1c0.6,0,1,0.5,1,1c0,0.6-0.2,5.5-2.2,7.3c-0.3,0.3-0.5,0.6-0.8,1c-0.9,1.4-1.4,3.1-1.4,4.9
				l0,1.8C53.6,80,53.2,80.5,52.6,80.5"/>
			<path id="Fill-19" class="st4" d="M67.9,80.5c-0.5,0-1-0.4-1-0.9l-0.1-1.8c0-1.8-0.5-3.4-1.3-4.8c-0.3-0.5-0.6-0.9-1-1.3
				c-1.9-1.7-2.1-6.7-2.1-7.2c0-0.6,0.4-1,1-1c0.6,0,1,0.4,1,1c0.1,1.9,0.6,5,1.5,5.9c0.5,0.5,0.9,1.1,1.3,1.6
				c1,1.6,1.6,3.6,1.6,5.8l0.1,1.8C69,80,68.6,80.4,67.9,80.5C68,80.5,68,80.5,67.9,80.5"/>
			<path id="Fill-21" class="st4" d="M63,55.8c-0.6,0-1-0.4-1-1v-2h-3.6l0,2c0,0.6-0.4,1-1,1c-0.6,0-1-0.4-1-1v-2.1
				c0-1.1,0.8-2,1.8-2h4.1c1,0,1.8,0.9,1.8,2v2.1C64,55.4,63.6,55.8,63,55.8"/>
			<path id="Fill-23" class="st4" d="M57.9,56.3c-0.3,0-0.6,0.3-0.6,0.8s0.3,0.8,0.6,0.8h4.6c0.3,0,0.6-0.3,0.6-0.8
				s-0.3-0.8-0.6-0.8H57.9z M62.6,59.9h-4.6c-1.4,0-2.6-1.2-2.6-2.8s1.2-2.8,2.6-2.8h4.6c1.4,0,2.6,1.2,2.6,2.8S64,59.9,62.6,59.9
				L62.6,59.9z"/>
			<path id="Fill-25" class="st4" d="M63.5,65.4h-6.4c-0.3,0-0.5-0.1-0.7-0.3c-0.2-0.2-0.3-0.5-0.3-0.7l0.2-5.7c0-0.6,0.5-1,1-1
				c0.6,0,1,0.5,1,1l-0.2,4.6h4.3l-0.2-4.6c0-0.6,0.4-1,1-1c0.6,0,1,0.4,1,1l0.2,5.7c0,0.3-0.1,0.5-0.3,0.7
				C64,65.3,63.7,65.4,63.5,65.4"/>
			<path id="Fill-27" class="st4" d="M52.6,115c-0.6,0-1-0.4-1-1V79.5c0-0.6,0.4-1,1-1c0.6,0,1,0.4,1,1V114
				C53.6,114.5,53.2,115,52.6,115"/>
			<path id="Fill-29" class="st4" d="M67.9,115c-0.6,0-1-0.4-1-1V79.5c0-0.6,0.4-1,1-1c0.6,0,1,0.4,1,1V114
				C68.9,114.5,68.5,115,67.9,115"/>
			<path id="Fill-31" class="st0" d="M36.1,37.8c-3.9,0-7,3.1-7,7V106c0,3.9,3.1,7,7,7h48.4c3.9,0,7-3.1,7-7V44.8c0-3.9-3.1-7-7-7
				H36.1z M84.5,115H36.1c-5,0-9-4-9-9V44.8c0-5,4-9,9-9h48.4c5,0,9,4,9,9V106C93.5,110.9,89.4,115,84.5,115L84.5,115z"/>
			<path id="Fill-33" class="st3" d="M80.5,100H40.1c-1.5,0-2.7-1.2-2.7-2.7V84.6c0-1.5,1.2-2.7,2.7-2.7h40.3c1.5,0,2.7,1.2,2.7,2.7
				v12.8C83.1,98.9,81.9,100,80.5,100"/>
			<path id="Fill-35" class="st3" d="M40.1,82.9c-0.9,0-1.7,0.7-1.7,1.7v12.8c0,0.9,0.7,1.7,1.7,1.7h40.3c0.9,0,1.7-0.7,1.7-1.7
				V84.6c0-0.9-0.7-1.7-1.7-1.7H40.1z M80.5,101H40.1c-2,0-3.7-1.6-3.7-3.7V84.6c0-2,1.6-3.7,3.7-3.7h40.3c2,0,3.7,1.6,3.7,3.7v12.8
				C84.1,99.4,82.5,101,80.5,101L80.5,101z"/>
			<path id="Fill-37" class="st1" d="M49.9,93c0.8,0,1.3-0.3,1.3-0.9v0c0-0.6-0.4-0.9-1.4-0.9h-2.2V93H49.9z M49.4,89.6
				c0.8,0,1.4-0.3,1.4-0.9v0c0-0.6-0.4-0.9-1.2-0.9h-1.9v1.8H49.4z M45.9,86.1h4c1,0,1.7,0.3,2.2,0.8c0.4,0.4,0.6,0.9,0.6,1.5v0
				c0,1-0.5,1.5-1.1,1.8c1,0.4,1.6,1,1.6,2.1v0c0,1.6-1.3,2.3-3.2,2.3h-4.1V86.1z"/>
			<path id="Fill-39" class="st1" d="M56.2,91v-4.9h1.9V91c0,1.4,0.7,2.1,1.8,2.1c1.1,0,1.8-0.7,1.8-2v-4.9h1.9V91
				c0,2.6-1.5,3.9-3.7,3.9C57.6,94.8,56.2,93.5,56.2,91"/>
			<polygon id="Fill-41" class="st1" points="69.6,91.3 66.3,86.1 68.5,86.1 70.5,89.6 72.6,86.1 74.7,86.1 71.5,91.3 71.5,94.7 
				69.6,94.7 			"/>
			<path id="Fill-43" class="st3" d="M40.8,53.3l-2.2,1.2c-0.3,0.2-0.8,0.1-0.9-0.3c-0.1-0.1-0.1-0.3-0.1-0.4l0.4-2.6l-1.8-1.9
				c-0.3-0.3-0.3-0.7,0-1c0.1-0.1,0.2-0.2,0.4-0.2l2.5-0.4l1.1-2.3c0.2-0.3,0.6-0.5,0.9-0.3c0.1,0.1,0.3,0.2,0.3,0.3l1.1,2.3
				l2.5,0.4c0.4,0.1,0.6,0.4,0.6,0.8c0,0.1-0.1,0.3-0.2,0.4l-1.8,1.9l0.4,2.6c0.1,0.4-0.2,0.7-0.6,0.8c-0.2,0-0.3,0-0.4-0.1
				L40.8,53.3z"/>
		</g>
	</g>
</g>
</svg>
