<?xml version="1.0" encoding="utf-8"?>
<!-- Generator: Adobe Illustrator 22.0.1, SVG Export Plug-In . SVG Version: 6.00 Build 0)  -->
<svg version="1.1" id="Layer_1" xmlns="http://www.w3.org/2000/svg" xmlns:xlink="http://www.w3.org/1999/xlink" x="0px" y="0px"
	 viewBox="0 0 121 178" style="enable-background:new 0 0 121 178;" xml:space="preserve">
<style type="text/css">
	.st0{fill:#FFFFFF;}
	.st1{fill:#DADADA;}
	.st2{fill:#86929A;}
	.st3{fill:#00AD68;}
	.st4{fill:#333E48;}
</style>
<title>illo-browse</title>
<desc>Created with Sketch.</desc>
<g id="Design-_x2F__x2F_-Phase-2">
	<g id="illo-browse" transform="translate(0.000000, -1.000000)">
		<g id="Group-29" transform="translate(0.000000, 0.610000)">
			<path id="Fill-1" class="st0" d="M2.7,150.3c-0.8,0-1.5-0.7-1.5-1.5V2.8c0-0.8,0.7-1.5,1.5-1.5h116c0.8,0,1.5,0.7,1.5,1.5v146
				c0,0.8-0.7,1.5-1.5,1.5H2.7z"/>
			<path id="Fill-3" class="st1" d="M118.7,0.8H2.7c-1.1,0-2,0.9-2,2v146c0,1.1,0.9,2,2,2h116c1.1,0,2-0.9,2-2V2.8
				C120.7,1.7,119.8,0.8,118.7,0.8 M118.7,1.8c0.6,0,1,0.4,1,1v146c0,0.6-0.4,1-1,1H2.7c-0.6,0-1-0.4-1-1V2.8c0-0.6,0.4-1,1-1H118.7
				"/>
			<path id="Fill-5" class="st2" d="M33.2,59.2H42l0-0.2c0-1.2-0.3-2.3-0.9-3.2c-0.1-0.2-0.3-0.4-0.4-0.5l-0.3-0.2
				c-1.1-1-1.4-3.1-1.5-4.5h-2.7c-0.1,1.3-0.5,3.4-1.6,4.4c-0.2,0.2-0.4,0.5-0.6,0.8c-0.6,0.9-0.9,2-0.9,3.2L33.2,59.2z M44.1,61.2
				H31.2l0-2.3c0-1.6,0.4-3,1.2-4.2c0.3-0.4,0.6-0.8,0.9-1.2c0.6-0.6,1-2.7,1-4l0-1l6.5,0l0,1c0,1.3,0.3,3,0.7,3.7l0.3,0.3
				c0.3,0.3,0.6,0.7,0.9,1.2c0.8,1.2,1.2,2.7,1.2,4.2L44.1,61.2z"/>
			<path id="Fill-7" class="st2" d="M36.3,48.5h2.5l-0.1-2.6h-2.3L36.3,48.5z M40.9,50.5h-6.6l0.3-6.6h6.1L40.9,50.5z"/>
			<path id="Fill-9" class="st2" d="M36.5,43.9h2.2v-1.4h-2.2V43.9z M40.6,45.9h-6.2v-3.4c0-1.1,0.9-2,2-2h2.2c1.1,0,2,0.9,2,2V45.9
				z"/>
			<path id="Fill-11" class="st2" d="M21.9,59.2h77.7V41.9c0-2.2-1.8-4-4-4H25.9c-2.2,0-4,1.8-4,4V59.2z M101.5,61.2H19.9V41.9
				c0-3.3,2.7-6,6-6h69.7c3.3,0,6,2.7,6,6V61.2z"/>
			<path id="Fill-12" class="st2" d="M84.4,47.7H56.6c-0.6,0-1-0.4-1-1c0-0.6,0.4-1,1-1h27.8c0.6,0,1,0.4,1,1
				C85.4,47.3,84.9,47.7,84.4,47.7"/>
			<path id="Fill-13" class="st2" d="M72.4,53.3H56.6c-0.6,0-1-0.4-1-1c0-0.6,0.4-1,1-1h15.9c0.6,0,1,0.4,1,1
				C73.4,52.8,73,53.3,72.4,53.3"/>
			<path id="Fill-14" class="st2" d="M33.2,113.7H42l0-0.2c0-1.2-0.3-2.3-0.9-3.2c-0.1-0.2-0.3-0.4-0.4-0.6l-0.2-0.2
				c-1.1-1-1.4-3.1-1.5-4.5h-2.7c-0.1,1.3-0.5,3.4-1.6,4.4c-0.6,0.7-1.1,1.6-1.5,2.8L33.2,113.7z M44.1,115.7H31.2l0.1-4
				c0.4-1.5,1.1-2.8,2-3.7c0.6-0.6,1-2.7,1-4l0-1l6.5,0l0,1c0,1.3,0.3,3,0.7,3.7l0.3,0.3c0.3,0.3,0.6,0.7,0.9,1.2
				c0.8,1.2,1.2,2.7,1.2,4.2L44.1,115.7z"/>
			<path id="Fill-15" class="st2" d="M36.3,103h2.5l-0.1-2.6h-2.3L36.3,103z M40.9,105h-6.6l0.3-6.6h6.1L40.9,105z"/>
			<path id="Fill-16" class="st2" d="M36.5,98.4h2.2V97h-2.2V98.4z M40.6,100.4h-6.2V97c0-1.1,0.9-2,2-2h2.2c1.1,0,2,0.9,2,2V100.4z
				"/>
			<path id="Fill-17" class="st2" d="M21.9,92.4v17.2c0,2.2,1.8,4,4,4h69.7c2.2,0,4-1.8,4-4V92.4H21.9z M95.5,115.7H25.9
				c-3.3,0-6-2.7-6-6V90.4h81.7v19.2C101.5,113,98.8,115.7,95.5,115.7L95.5,115.7z"/>
			<path id="Fill-18" class="st2" d="M84.4,102.3H56.6c-0.6,0-1-0.4-1-1s0.4-1,1-1h27.8c0.6,0,1,0.4,1,1S84.9,102.3,84.4,102.3"/>
			<path id="Fill-19" class="st2" d="M72.4,107.8H56.6c-0.6,0-1-0.4-1-1c0-0.6,0.4-1,1-1h15.9c0.6,0,1,0.4,1,1
				C73.4,107.3,73,107.8,72.4,107.8"/>
			<path id="Fill-20" class="st3" d="M51.5,92.4H34.1l0-2.8c0-2.2,0.6-4.3,1.8-6c0.3-0.5,0.7-0.9,1.1-1.3c1-0.9,1.5-4,1.6-5.9l2,0.1
				c0,0.6-0.2,5.5-2.2,7.3c-0.3,0.3-0.5,0.6-0.8,1c-0.9,1.4-1.4,3.1-1.4,4.9l0,0.8h13.2l0-0.8c0-1.8-0.5-3.4-1.3-4.8
				c-0.3-0.5-0.6-0.9-1-1.3c-1.9-1.7-2.1-6.7-2.1-7.2l2-0.1c0.1,1.9,0.6,5,1.5,5.9c0.5,0.5,0.9,1.1,1.3,1.6c1,1.6,1.6,3.6,1.6,5.8
				L51.5,92.4z"/>
			<path id="Fill-21" class="st3" d="M46.5,66.8h-2v-2h-3.6l0,2h-2v-2.1c0-1.1,0.8-2,1.8-2h4.1c1,0,1.8,0.9,1.8,2V66.8z"/>
			<path id="Fill-22" class="st3" d="M40.4,68.3c-0.3,0-0.6,0.3-0.6,0.8c0,0.4,0.3,0.8,0.6,0.8H45c0.3,0,0.6-0.3,0.6-0.8
				c0-0.4-0.3-0.8-0.6-0.8H40.4z M45,71.8h-4.6c-1.4,0-2.6-1.2-2.6-2.8c0-1.5,1.2-2.8,2.6-2.8H45c1.4,0,2.6,1.2,2.6,2.8
				C47.6,70.6,46.4,71.8,45,71.8L45,71.8z"/>
			<polygon id="Fill-23" class="st3" points="47,77.4 38.5,77.4 38.8,70.2 40.8,70.3 40.6,75.4 44.9,75.4 44.7,70.3 46.7,70.2 			
				"/>
			<path id="Fill-24" class="st4" d="M23.7,61.2c-3.9,0-7,3.1-7,7v15.3c0,3.9,3.1,7,7,7h74c3.9,0,7-3.1,7-7V68.2c0-3.9-3.1-7-7-7
				H23.7z M97.7,92.4h-74c-5,0-9-4-9-9V68.2c0-5,4-9,9-9h74c5,0,9,4,9,9v15.3C106.7,88.4,102.7,92.4,97.7,92.4L97.7,92.4z"/>
			<path id="Fill-25" class="st4" d="M62.7,71.1h25.8v-1.7H62.7V71.1z M89.5,73.1H61.7c-0.6,0-1-0.4-1-1v-3.7c0-0.6,0.4-1,1-1h27.8
				c0.6,0,1,0.4,1,1v3.7C90.5,72.7,90.1,73.1,89.5,73.1L89.5,73.1z"/>
			<path id="Fill-26" class="st4" d="M89.5,78.7H61.7c-0.6,0-1-0.4-1-1s0.4-1,1-1h27.8c0.6,0,1,0.4,1,1S90.1,78.7,89.5,78.7"/>
			<path id="Fill-27" class="st4" d="M77.6,84.2H61.7c-0.6,0-1-0.4-1-1s0.4-1,1-1h15.9c0.6,0,1,0.4,1,1S78.2,84.2,77.6,84.2"/>
			<path id="Fill-28" class="st3" d="M26.8,79.3l-2.2,1.2c-0.3,0.2-0.8,0.1-0.9-0.3c-0.1-0.1-0.1-0.3-0.1-0.4l0.4-2.6l-1.8-1.9
				c-0.3-0.3-0.3-0.7,0-1c0.1-0.1,0.2-0.2,0.4-0.2l2.5-0.4l1.1-2.3c0.2-0.3,0.6-0.5,0.9-0.3c0.1,0.1,0.3,0.2,0.3,0.3l1.1,2.3
				l2.5,0.4c0.4,0.1,0.6,0.4,0.6,0.8c0,0.1-0.1,0.3-0.2,0.4l-1.8,1.9l0.4,2.6c0.1,0.4-0.2,0.7-0.6,0.8c-0.2,0-0.3,0-0.4-0.1
				L26.8,79.3z"/>
		</g>
		<g id="Group-48" transform="translate(33.000000, 168.610000)">
			<path id="Fill-36" class="st2" d="M4.7,8.2c1,0,1.6-0.4,1.6-1.2v0c0-0.7-0.6-1.1-1.7-1.1H2.3v2.3H4.7z M4.3,4.6
				c0.9,0,1.6-0.4,1.6-1.1v0c0-0.7-0.5-1.1-1.5-1.1H2.3v2.2H4.3z M0.8,1.1h3.8c1,0,1.7,0.3,2.2,0.7c0.4,0.4,0.6,0.8,0.6,1.4v0
				c0,1-0.6,1.5-1.2,1.9c1,0.3,1.7,0.9,1.7,2v0c0,1.5-1.2,2.3-3.1,2.3H0.8V1.1z"/>
			<path id="Fill-38" class="st2" d="M13.1,5.3c1.1,0,1.7-0.6,1.7-1.4v0c0-0.9-0.6-1.4-1.7-1.4h-2.1v2.8H13.1z M9.5,1.1h3.7
				c1.1,0,1.9,0.3,2.4,0.8c0.4,0.5,0.7,1.1,0.7,1.8v0c0,1.4-0.8,2.2-2,2.5l2.3,3.2h-1.7l-2.1-2.9h-1.8v2.9H9.5V1.1z"/>
			<path id="Fill-40" class="st2" d="M25,5.3L25,5.3c0-1.7-1.2-3-2.9-3c-1.7,0-2.8,1.3-2.8,3v0c0,1.6,1.2,3,2.9,3
				C23.8,8.3,25,7,25,5.3 M17.8,5.3L17.8,5.3c0-2.4,1.8-4.4,4.4-4.4s4.4,2,4.4,4.3v0c0,2.4-1.8,4.3-4.4,4.3
				C19.6,9.6,17.8,7.7,17.8,5.3"/>
			<polygon id="Fill-42" class="st2" points="27.2,1.1 28.8,1.1 30.8,7.3 32.9,1.1 34.2,1.1 36.2,7.3 38.2,1.1 39.8,1.1 36.8,9.6 
				35.6,9.6 33.5,3.5 31.4,9.6 30.2,9.6 			"/>
			<path id="Fill-44" class="st2" d="M40.5,8.3l0.9-1.1C42.2,7.9,43,8.3,44,8.3c0.9,0,1.5-0.4,1.5-1.1v0c0-0.6-0.3-0.9-1.9-1.3
				c-1.8-0.4-2.8-1-2.8-2.5v0C40.8,2,42,1,43.7,1c1.2,0,2.2,0.4,3,1.1l-0.8,1.1c-0.8-0.6-1.5-0.9-2.3-0.9c-0.9,0-1.4,0.4-1.4,1v0
				c0,0.6,0.4,0.9,2,1.3C46.1,5.1,47,5.7,47,7.1v0c0,1.6-1.2,2.5-3,2.5C42.7,9.6,41.5,9.2,40.5,8.3"/>
			<polygon id="Fill-46" class="st2" points="48.7,1.1 54.9,1.1 54.9,2.4 50.2,2.4 50.2,4.6 54.4,4.6 54.4,5.9 50.2,5.9 50.2,8.2 
				55,8.2 55,9.5 48.7,9.5 			"/>
		</g>
	</g>
</g>
</svg>
