<?xml version="1.0" encoding="utf-8"?>
<!-- Generator: Adobe Illustrator 22.0.1, SVG Export Plug-In . SVG Version: 6.00 Build 0)  -->
<svg version="1.1" id="Layer_1" xmlns="http://www.w3.org/2000/svg" xmlns:xlink="http://www.w3.org/1999/xlink" x="0px" y="0px"
	 viewBox="0 0 542 178" style="enable-background:new 0 0 542 178;" xml:space="preserve">
<style type="text/css">
	.st0{fill:#86929A;}
	.st1{fill:#FFFFFF;}
	.st2{fill:#DADADA;}
	.st3{fill:#00AD68;}
	.st4{fill:#333E48;}
</style>
<title>Group 24</title>
<desc>Created with Sketch.</desc>
<g id="Design-_x2F__x2F_-Phase-2">
	<g id="Group-24" transform="translate(0.000000, -1.000000)">
		<g id="illo-buy" transform="translate(281.000000, 0.000000)">
			<g id="Group-45" transform="translate(0.000000, 0.610000)">
				<path id="Fill-1" class="st0" d="M52.1,175.8c1,0,1.6-0.4,1.6-1.2l0,0c0-0.7-0.6-1.1-1.7-1.1h-2.3v2.3H52.1z M51.7,172.2
					c0.9,0,1.6-0.4,1.6-1.1l0,0c0-0.7-0.5-1.1-1.5-1.1h-2.1v2.2L51.7,172.2L51.7,172.2z M48.2,168.7H52c1,0,1.7,0.3,2.2,0.7
					c0.4,0.4,0.6,0.8,0.6,1.4l0,0c0,1-0.6,1.5-1.2,1.9c1,0.3,1.7,0.9,1.7,2l0,0c0,1.5-1.2,2.3-3.1,2.3h-3.9L48.2,168.7L48.2,168.7z"
					/>
				<path id="Fill-3" class="st0" d="M56.7,173.5v-4.8h1.5v4.8c0,1.6,0.8,2.4,2.1,2.4s2.1-0.8,2.1-2.3v-4.8h1.5v4.8
					c0,2.5-1.4,3.8-3.6,3.8C58.1,177.2,56.7,176,56.7,173.5"/>
				<polygon id="Fill-5" class="st0" points="68.4,173.8 65.1,168.7 66.8,168.7 69.2,172.4 71.6,168.7 73.2,168.7 69.9,173.7 
					69.9,177.1 68.4,177.1 				"/>
				<path id="Fill-7" class="st1" d="M2.3,149.9c-0.8,0-1.5-0.7-1.5-1.5V2.4c0-0.8,0.7-1.5,1.5-1.5h116c0.8,0,1.5,0.7,1.5,1.5v146
					c0,0.8-0.7,1.5-1.5,1.5H2.3z"/>
				<path id="Fill-9" class="st2" d="M118.3,0.4H2.3c-1.1,0-2,0.9-2,2v146c0,1.1,0.9,2,2,2h116c1.1,0,2-0.9,2-2V2.4
					C120.3,1.3,119.4,0.4,118.3,0.4 M118.3,1.4c0.6,0,1,0.4,1,1v146c0,0.6-0.4,1-1,1H2.3c-0.6,0-1-0.4-1-1V2.4c0-0.6,0.4-1,1-1
					L118.3,1.4"/>
				<path id="Fill-11" class="st3" d="M63.2,93.2h-6.7c-0.6,0-1-0.4-1-1s0.4-1,1-1h6.7c0.6,0,1,0.4,1,1
					C64.2,92.7,63.7,93.2,63.2,93.2"/>
				<path id="Fill-13" class="st3" d="M63.2,88h-6.7c-0.6,0-1-0.4-1-1s0.4-1,1-1h6.7c0.6,0,1,0.4,1,1S63.7,88,63.2,88"/>
				<path id="Fill-15" class="st4" d="M53.2,99h13.3V82.9H53.2V99z M67.5,101H52.2c-0.3,0-0.5-0.1-0.7-0.3c-0.2-0.2-0.3-0.4-0.3-0.7
					l0.1-18.1c0-0.6,0.4-1,1-1h15.2c0.6,0,1,0.4,1,1V100C68.5,100.6,68,101,67.5,101L67.5,101z"/>
				<path id="Fill-17" class="st4" d="M52.6,80.5L52.6,80.5c-0.6,0-1-0.5-1-1v-1.8c0-2.2,0.6-4.3,1.8-6c0.3-0.5,0.7-0.9,1.1-1.3
					c1-0.9,1.5-4,1.6-5.9c0-0.6,0.5-1,1-1c0.6,0,1,0.5,1,1c0,0.6-0.2,5.5-2.2,7.3c-0.3,0.3-0.5,0.6-0.8,1c-0.9,1.4-1.4,3.1-1.4,4.9
					v1.8C53.6,80,53.2,80.5,52.6,80.5"/>
				<path id="Fill-19" class="st4" d="M67.9,80.5c-0.5,0-1-0.4-1-0.9l-0.1-1.8c0-1.8-0.5-3.4-1.3-4.8c-0.3-0.5-0.6-0.9-1-1.3
					c-1.9-1.7-2.1-6.7-2.1-7.2c0-0.6,0.4-1,1-1s1,0.4,1,1c0.1,1.9,0.6,5,1.5,5.9c0.5,0.5,0.9,1.1,1.3,1.6c1,1.6,1.6,3.6,1.6,5.8
					l0.1,1.8C69,80,68.6,80.4,67.9,80.5C68,80.5,68,80.5,67.9,80.5"/>
				<path id="Fill-21" class="st4" d="M63,55.8c-0.6,0-1-0.4-1-1v-2h-3.6v2c0,0.6-0.4,1-1,1s-1-0.4-1-1v-2.1c0-1.1,0.8-2,1.8-2h4.1
					c1,0,1.8,0.9,1.8,2v2.1C64,55.4,63.6,55.8,63,55.8"/>
				<path id="Fill-23" class="st4" d="M57.9,56.3c-0.3,0-0.6,0.3-0.6,0.8s0.3,0.8,0.6,0.8h4.6c0.3,0,0.6-0.3,0.6-0.8
					s-0.3-0.8-0.6-0.8H57.9z M62.6,59.9H58c-1.4,0-2.6-1.2-2.6-2.8s1.2-2.8,2.6-2.8h4.6c1.4,0,2.6,1.2,2.6,2.8S64,59.9,62.6,59.9
					L62.6,59.9z"/>
				<path id="Fill-25" class="st4" d="M63.5,65.4h-6.4c-0.3,0-0.5-0.1-0.7-0.3c-0.2-0.2-0.3-0.5-0.3-0.7l0.2-5.7c0-0.6,0.5-1,1-1
					c0.6,0,1,0.5,1,1l-0.2,4.6h4.3l-0.2-4.6c0-0.6,0.4-1,1-1s1,0.4,1,1l0.2,5.7c0,0.3-0.1,0.5-0.3,0.7C64,65.3,63.7,65.4,63.5,65.4"
					/>
				<path id="Fill-27" class="st4" d="M52.6,115c-0.6,0-1-0.4-1-1V79.5c0-0.6,0.4-1,1-1s1,0.4,1,1V114C53.6,114.5,53.2,115,52.6,115
					"/>
				<path id="Fill-29" class="st4" d="M67.9,115c-0.6,0-1-0.4-1-1V79.5c0-0.6,0.4-1,1-1s1,0.4,1,1V114C68.9,114.5,68.5,115,67.9,115
					"/>
				<path id="Fill-31" class="st0" d="M36.1,37.8c-3.9,0-7,3.1-7,7V106c0,3.9,3.1,7,7,7h48.4c3.9,0,7-3.1,7-7V44.8c0-3.9-3.1-7-7-7
					H36.1z M84.5,115H36.1c-5,0-9-4-9-9V44.8c0-5,4-9,9-9h48.4c5,0,9,4,9,9V106C93.5,110.9,89.4,115,84.5,115L84.5,115z"/>
				<path id="Fill-33" class="st3" d="M80.5,100H40.1c-1.5,0-2.7-1.2-2.7-2.7V84.6c0-1.5,1.2-2.7,2.7-2.7h40.3
					c1.5,0,2.7,1.2,2.7,2.7v12.8C83.1,98.9,81.9,100,80.5,100"/>
				<path id="Fill-35" class="st3" d="M40.1,82.9c-0.9,0-1.7,0.7-1.7,1.7v12.8c0,0.9,0.7,1.7,1.7,1.7h40.3c0.9,0,1.7-0.7,1.7-1.7
					V84.6c0-0.9-0.7-1.7-1.7-1.7H40.1z M80.5,101H40.1c-2,0-3.7-1.6-3.7-3.7V84.6c0-2,1.6-3.7,3.7-3.7h40.3c2,0,3.7,1.6,3.7,3.7
					v12.8C84.1,99.4,82.5,101,80.5,101L80.5,101z"/>
				<path id="Fill-37" class="st1" d="M49.9,93c0.8,0,1.3-0.3,1.3-0.9l0,0c0-0.6-0.4-0.9-1.4-0.9h-2.2V93H49.9z M49.4,89.6
					c0.8,0,1.4-0.3,1.4-0.9l0,0c0-0.6-0.4-0.9-1.2-0.9h-1.9v1.8H49.4z M45.9,86.1h4c1,0,1.7,0.3,2.2,0.8c0.4,0.4,0.6,0.9,0.6,1.5
					l0,0c0,1-0.5,1.5-1.1,1.8c1,0.4,1.6,1,1.6,2.1l0,0c0,1.6-1.3,2.3-3.2,2.3h-4.1V86.1z"/>
				<path id="Fill-39" class="st1" d="M56.2,91v-4.9h1.9V91c0,1.4,0.7,2.1,1.8,2.1s1.8-0.7,1.8-2v-4.9h1.9V91c0,2.6-1.5,3.9-3.7,3.9
					C57.6,94.8,56.2,93.5,56.2,91"/>
				<polygon id="Fill-41" class="st1" points="69.6,91.3 66.3,86.1 68.5,86.1 70.5,89.6 72.6,86.1 74.7,86.1 71.5,91.3 71.5,94.7 
					69.6,94.7 				"/>
				<path id="Fill-43" class="st3" d="M40.8,53.3l-2.2,1.2c-0.3,0.2-0.8,0.1-0.9-0.3c-0.1-0.1-0.1-0.3-0.1-0.4l0.4-2.6l-1.8-1.9
					c-0.3-0.3-0.3-0.7,0-1c0.1-0.1,0.2-0.2,0.4-0.2l2.5-0.4l1.1-2.3c0.2-0.3,0.6-0.5,0.9-0.3c0.1,0.1,0.3,0.2,0.3,0.3l1.1,2.3
					l2.5,0.4c0.4,0.1,0.6,0.4,0.6,0.8c0,0.1-0.1,0.3-0.2,0.4l-1.8,1.9l0.4,2.6c0.1,0.4-0.2,0.7-0.6,0.8c-0.2,0-0.3,0-0.4-0.1
					L40.8,53.3z"/>
			</g>
		</g>
		<g id="illo-enjoy" transform="translate(422.000000, 0.000000)">
			<path id="Fill-1_1_" class="st1" d="M2,150.5c-0.8,0-1.5-0.7-1.5-1.5V3c0-0.8,0.7-1.5,1.5-1.5h116c0.8,0,1.5,0.7,1.5,1.5v146
				c0,0.8-0.7,1.5-1.5,1.5H2z"/>
			<g id="Group-5" transform="translate(0.000000, 0.844000)">
				<g id="Clip-4">
				</g>
				<path id="Fill-3_1_" class="st2" d="M118,0.2H2c-1.1,0-2,0.9-2,2v146c0,1.1,0.9,2,2,2h116c1.1,0,2-0.9,2-2V2.2
					C120,1.1,119.1,0.2,118,0.2 M118,1.2c0.6,0,1,0.4,1,1v146c0,0.6-0.4,1-1,1H2c-0.6,0-1-0.4-1-1V2.2c0-0.6,0.4-1,1-1H118"/>
			</g>
			<path id="Fill-6" class="st0" d="M68.6,124.4H51.4c-1.9,0-3.5-1.6-3.5-3.5v-14l0.1-42c0-3,0.8-5.8,2.3-8.2
				c0.5-0.8,1.1-1.6,1.7-2.2l0.2,0.2L52,54.4l0.6,0.5L52,54.4c1.5-1.4,2.3-6.2,2.3-8.9l2,0.1c0,0.8-0.3,7.8-3,10.2
				c-0.5,0.6-1,1.2-1.5,1.9c-1.3,2-1.9,4.4-1.9,7.1l-0.1,42v14c0,0.8,0.7,1.5,1.5,1.5h17.3c0.8,0,1.5-0.7,1.5-1.5v-14l-0.1-42
				c0-2.7-0.7-5.1-1.9-7.1c-0.4-0.7-0.9-1.3-1.5-1.9c-2.6-2.4-2.9-9.5-3-10.2l2-0.1c0.1,1.9,0.6,7.3,2.3,8.9l-0.5,0.5l0.5-0.5
				l-0.3,0.3l0.3-0.3c0.6,0.7,1.2,1.4,1.7,2.2c1.5,2.3,2.2,5.1,2.3,8.2l0.1,42v14C72.2,122.8,70.6,124.4,68.6,124.4"/>
			<path id="Fill-8" class="st0" d="M57,31.1h6v-1.4c0-0.1,0-0.1-0.1-0.1H57c-0.1,0-0.1,0-0.1,0.1L57,31.1L57,31.1z M64,33.1h-8
				c-0.6,0-1-0.4-1-1v-2.4c0-1.2,0.9-2.1,2.1-2.1H63c1.2,0,2.1,0.9,2.1,2.1v2.4C65,32.7,64.6,33.1,64,33.1L64,33.1z"/>
			<path id="Fill-10" class="st0" d="M56.7,33.1c-0.7,0-1.3,0.5-1.3,1c0,0.6,0.6,1,1.3,1h6.7c0.7,0,1.3-0.5,1.3-1c0-0.6-0.6-1-1.3-1
				H56.7z M63.3,37.2h-6.7c-1.8,0-3.3-1.4-3.3-3c0-1.7,1.5-3,3.3-3h6.7c1.8,0,3.3,1.4,3.3,3S65.2,37.2,63.3,37.2L63.3,37.2z"/>
			<path id="Fill-12" class="st0" d="M56.4,44.6h7.2l-0.3-7.4h-6.6L56.4,44.6z M65.7,46.6H54.3l0.4-11.4h10.5L65.7,46.6z"/>
			<path id="Fill-14" class="st0" d="M64.3,84.6h-8.7c-0.6,0-1-0.4-1-1s0.4-1,1-1h8.7c0.6,0,1,0.4,1,1
				C65.3,84.1,64.9,84.6,64.3,84.6"/>
			<path id="Fill-16" class="st0" d="M64.4,78.8h-8.8c-0.5,0-1-0.4-1-1v-1.4c0-0.5,0.4-1,1-1h8.8c0.5,0,1,0.4,1,1v1.4
				C65.3,78.3,64.9,78.8,64.4,78.8"/>
			<path id="Fill-18" class="st0" d="M64.3,76.4h-8.7v1.4h8.7V76.4z M64.4,79.8h-8.8c-1.1,0-2-0.9-2-2v-1.4c0-1.1,0.9-2,2-2h8.8
				c1.1,0,2,0.9,2,2v1.4C66.3,78.9,65.5,79.8,64.4,79.8L64.4,79.8z"/>
			<path id="Fill-20" class="st0" d="M62.6,89.4H57c-0.6,0-1-0.4-1-1s0.4-1,1-1h5.6c0.6,0,1,0.4,1,1S63.1,89.4,62.6,89.4"/>
			<path id="Fill-22" class="st0" d="M49.9,95.3h20.3V68.5H50L49.9,95.3z M72.2,97.3H47.9L48,66.5h24.2V97.3z"/>
			<path id="Fill-24" class="st1" d="M52.7,87.4c0,6-4.8,10.8-10.8,10.8s-10.8-4.8-10.8-10.8l0.1-1.7l3.6-17.3
				c0.1-0.5,0.6-0.9,1.1-0.9H42h6c0.5,0,1,0.4,1.1,0.9l3.5,17.3L52.7,87.4z"/>
			<g id="Group-28" transform="translate(0.000000, 79.844000)">
				<g id="Clip-27">
				</g>
				<path id="Fill-26" class="st3" d="M49,3.5l0.5,2.6l0.1,1.4c-0.1,4.3-3.5,7.7-7.8,7.7S34,11.7,34,7.5l0.1-1.4l0.5-2.6
					C35,2,36.3,0.9,37.9,0.9h8C47.4,0.9,48.7,2,49,3.5"/>
			</g>
			<path id="Fill-29_1_" class="st4" d="M32.2,85.8l-0.1,1.6c0,5.3,4.4,9.7,9.8,9.7s9.8-4.4,9.8-9.8l-0.1-1.6l-3.5-17.3
				c0,0,0-0.1-0.1-0.1H35.8c0,0-0.1,0-0.1,0.1L32.2,85.8z M41.9,99.2c-6.5,0-11.8-5.3-11.8-11.8l0.1-1.8v-0.1l3.6-17.3
				c0.2-1,1.1-1.7,2.1-1.7H48c1,0,1.9,0.7,2.1,1.7l3.5,17.3v0.1l0.1,1.7v0.1C53.7,93.9,48.4,99.2,41.9,99.2L41.9,99.2z"/>
			<path id="Fill-31_1_" class="st4" d="M39.2,124l-1.6-1.3c7.4-9.1,0-24.8-0.1-24.9l1.8-0.9C39.6,97.6,47.3,114,39.2,124"/>
			<path id="Fill-33_1_" class="st4" d="M44.6,124c-8.2-10-0.5-26.4-0.1-27l1.8,0.9c-0.1,0.2-7.5,15.9-0.1,24.9L44.6,124z"/>
			<path id="Fill-35_1_" class="st4" d="M50.9,124.4h-18c-0.6,0-1-0.4-1-1s0.4-1,1-1h17.9c0.6,0,1,0.4,1,1S51.4,124.4,50.9,124.4"/>
			<path id="Fill-37_1_" class="st1" d="M88.9,87.4c0,6-4.8,10.8-10.8,10.8s-10.8-4.8-10.8-10.8l0.1-1.7L71,68.3
				c0.1-0.5,0.6-0.9,1.1-0.9h6.1h6.1c0.5,0,1,0.4,1.1,0.9L89,85.6L88.9,87.4z"/>
			<path id="Fill-39_1_" class="st4" d="M68.5,85.9l-0.1,1.6c0,5.3,4.4,9.7,9.8,9.7s9.8-4.4,9.8-9.8l-0.1-1.6l-3.5-17.2
				c0,0,0-0.1-0.1-0.1H72.1c0,0-0.1,0-0.1,0.1L68.5,85.9z M78.1,99.2c-6.5,0-11.8-5.3-11.8-11.8l0.1-1.8v-0.1L70,68.3
				c0.2-1,1.1-1.7,2-1.7h12.1c1,0,1.9,0.7,2,1.7l3.5,17.3v0.1l0.1,1.7v0.1C89.9,94,84.6,99.2,78.1,99.2L78.1,99.2z"/>
			<g id="Group-43" transform="translate(0.000000, 79.844000)">
				<g id="Clip-42">
				</g>
				<path id="Fill-41_1_" class="st3" d="M85.2,3.5l0.5,2.6l0.1,1.4c-0.1,4.3-3.5,7.7-7.8,7.7s-7.8-3.5-7.8-7.7l0.1-1.4l0.5-2.6
					C71.1,2,72.5,0.9,74,0.9h8C83.6,0.9,84.9,2,85.2,3.5"/>
			</g>
			<path id="Fill-44" class="st4" d="M75.4,124l-1.6-1.3c7.4-9,0-24.7-0.1-24.9l1.8-0.9C75.9,97.7,83.6,114,75.4,124"/>
			<path id="Fill-46_1_" class="st4" d="M80.8,124c-8.1-10-0.5-26.3-0.1-27l1.8,0.9c-0.1,0.2-7.5,15.8-0.1,24.9L80.8,124z"/>
			<path id="Fill-48" class="st4" d="M87.1,124.4H69.2c-0.6,0-1-0.4-1-1s0.4-1,1-1h17.9c0.6,0,1,0.4,1,1S87.6,124.4,87.1,124.4"/>
			<polygon id="Fill-50" class="st0" points="39.9,169.3 46.2,169.3 46.2,170.6 41.4,170.6 41.4,172.8 45.6,172.8 45.6,174.1 
				41.4,174.1 41.4,176.4 46.2,176.4 46.2,177.7 39.9,177.7 			"/>
			<polygon id="Fill-52" class="st0" points="48,169.3 49.3,169.3 53.8,175.1 53.8,169.3 55.3,169.3 55.3,177.7 54.1,177.7 
				49.4,171.7 49.4,177.7 48,177.7 			"/>
			<path id="Fill-54" class="st0" d="M56.6,176.5l1-1c0.5,0.6,1,1,1.7,1c0.8,0,1.3-0.5,1.3-1.6v-5.5h1.5v5.5c0,1-0.3,1.7-0.8,2.2
				s-1.2,0.7-2,0.7C58,177.8,57.2,177.2,56.6,176.5"/>
			<path id="Fill-56" class="st0" d="M71,173.5L71,173.5c0-1.7-1.2-3-2.9-3s-2.8,1.3-2.8,3l0,0c0,1.6,1.2,3,2.9,3S71,175.2,71,173.5
				 M63.8,173.5L63.8,173.5c0-2.4,1.8-4.4,4.4-4.4s4.4,2,4.4,4.3l0,0c0,2.4-1.8,4.3-4.4,4.3C65.6,177.8,63.8,175.9,63.8,173.5"/>
			<polygon id="Fill-58" class="st0" points="76.1,174.4 72.8,169.3 74.5,169.3 76.9,173 79.2,169.3 80.9,169.3 77.6,174.4 
				77.6,177.7 76.1,177.7 			"/>
		</g>
		<g id="illo-search">
			<path id="Fill-1_2_" class="st0" d="M34.6,176.5l0.9-1.1c0.8,0.7,1.6,1.1,2.7,1.1c0.9,0,1.5-0.4,1.5-1.1l0,0
				c0-0.6-0.3-0.9-1.9-1.3c-1.8-0.4-2.8-1-2.8-2.5l0,0c0-1.4,1.2-2.4,2.9-2.4c1.2,0,2.2,0.4,3,1.1l-0.8,1.1
				c-0.8-0.6-1.5-0.9-2.3-0.9c-0.9,0-1.4,0.4-1.4,1l0,0c0,0.6,0.4,0.9,2,1.3c1.8,0.4,2.7,1.1,2.7,2.5l0,0c0,1.6-1.2,2.5-3,2.5
				C36.8,177.8,35.6,177.4,34.6,176.5z"/>
			<polygon id="Fill-3_2_" class="st0" points="42.8,169.3 49.1,169.3 49.1,170.6 44.3,170.6 44.3,172.8 48.5,172.8 48.5,174.1 
				44.3,174.1 44.3,176.4 49.1,176.4 49.1,177.7 42.8,177.7 			"/>
			<path id="Fill-5_1_" class="st0" d="M56,174.4l-1.5-3.4l-1.4,3.4H56z M53.8,169.2h1.4l3.7,8.5h-1.6l-0.9-2h-4l-0.9,2H50
				L53.8,169.2z"/>
			<path id="Fill-7_1_" class="st0" d="M64,173.5c1.1,0,1.7-0.6,1.7-1.4l0,0c0-0.9-0.6-1.4-1.7-1.4h-2.1v2.8L64,173.5L64,173.5z
				 M60.4,169.3h3.7c1.1,0,1.9,0.3,2.4,0.8c0.4,0.5,0.7,1.1,0.7,1.8l0,0c0,1.4-0.8,2.2-2,2.5l2.3,3.2h-1.7l-2.1-2.9h-1.8v2.9h-1.5
				C60.4,177.6,60.4,169.3,60.4,169.3z"/>
			<path id="Fill-9_1_" class="st0" d="M68.7,173.5L68.7,173.5c0-2.4,1.8-4.4,4.3-4.4c1.5,0,2.5,0.5,3.3,1.3l-0.9,1.1
				c-0.7-0.6-1.4-1-2.3-1c-1.6,0-2.8,1.3-2.8,3l0,0c0,1.6,1.2,3,2.8,3c1,0,1.7-0.4,2.4-1.1l0.9,1c-0.9,0.9-1.8,1.5-3.4,1.5
				C70.5,177.8,68.7,175.9,68.7,173.5"/>
			<polygon id="Fill-11_1_" class="st0" points="77.9,169.3 79.4,169.3 79.4,172.8 83.4,172.8 83.4,169.3 84.8,169.3 84.8,177.7 
				83.4,177.7 83.4,174.2 79.4,174.2 79.4,177.7 77.9,177.7 			"/>
			<path id="Fill-13_1_" class="st1" d="M2,150.5c-0.8,0-1.5-0.7-1.5-1.5V3c0-0.8,0.7-1.5,1.5-1.5h116c0.8,0,1.5,0.7,1.5,1.5v146
				c0,0.8-0.7,1.5-1.5,1.5H2z"/>
			<g id="Group-17" transform="translate(0.000000, 0.844000)">
				<g id="Clip-16">
				</g>
				<path id="Fill-15_1_" class="st2" d="M118,0.2H2c-1.1,0-2,0.9-2,2v146c0,1.1,0.9,2,2,2h116c1.1,0,2-0.9,2-2V2.2
					C120,1.1,119.1,0.2,118,0.2 M118,1.2c0.6,0,1,0.4,1,1v146c0,0.6-0.4,1-1,1H2c-0.6,0-1-0.4-1-1V2.2c0-0.6,0.4-1,1-1H118"/>
			</g>
			<path id="Fill-18_1_" class="st0" d="M68.6,124.4H51.4c-1.9,0-3.5-1.6-3.5-3.5v-14L48,67.5l0.1-2.7c0-3,0.8-5.8,2.3-8.1
				c0.5-0.8,1.1-1.6,1.7-2.2l0.2,0.2L52,54.4l0.6,0.5L52,54.4c1.5-1.4,2.3-6.2,2.3-8.9l2,0.1c0,0.8-0.3,7.8-3,10.2
				c-0.5,0.6-1,1.2-1.5,1.9c-1.3,2-1.9,4.4-1.9,7.1l-0.1,2.6l-0.1,39.3v14c0,0.8,0.7,1.5,1.5,1.5h17.3c0.8,0,1.5-0.7,1.5-1.5v-14
				l-0.1-42c0-2.7-0.7-5.1-1.9-7.1c-0.4-0.7-0.9-1.3-1.5-1.9c-2.6-2.4-2.9-9.5-3-10.2l2-0.1c0.1,1.9,0.6,7.3,2.3,8.9l-0.5,0.5
				l0.5-0.5l-0.3,0.3l0.3-0.3c0.6,0.7,1.2,1.4,1.7,2.2c1.5,2.3,2.2,5.1,2.3,8.2l0.1,42v14C72.2,122.8,70.6,124.4,68.6,124.4"/>
			<path id="Fill-20_1_" class="st0" d="M57,31.1h6v-1.4c0-0.1,0-0.1-0.1-0.1H57c-0.1,0-0.1,0-0.1,0.1L57,31.1L57,31.1z M64,33.1h-8
				c-0.6,0-1-0.4-1-1v-2.4c0-1.2,0.9-2.1,2.1-2.1H63c1.2,0,2.1,0.9,2.1,2.1v2.4C65,32.7,64.6,33.1,64,33.1L64,33.1z"/>
			<path id="Fill-22_1_" class="st0" d="M56.7,33.1c-0.7,0-1.3,0.5-1.3,1c0,0.6,0.6,1,1.3,1h6.7c0.7,0,1.3-0.5,1.3-1
				c0-0.6-0.6-1-1.3-1H56.7z M63.3,37.2h-6.7c-1.8,0-3.3-1.4-3.3-3c0-1.7,1.5-3,3.3-3h6.7c1.8,0,3.3,1.4,3.3,3S65.2,37.2,63.3,37.2
				L63.3,37.2z"/>
			<path id="Fill-24_1_" class="st0" d="M56.4,44.6h7.2l-0.3-7.4h-6.6L56.4,44.6z M65.7,46.6H54.3l0.4-11.4h10.5L65.7,46.6z"/>
			<path id="Fill-26_1_" class="st1" d="M60,105.5c-13.1,0-23.7-10.6-23.7-23.7S46.9,58.1,60,58.1s23.7,10.6,23.7,23.7
				C83.7,95,73.1,105.5,60,105.5"/>
			<path id="Fill-28" class="st1" d="M60,108.4c-14.6,0-26.5-11.9-26.5-26.5S45.4,55.4,60,55.4s26.5,11.9,26.5,26.5
				S74.6,108.4,60,108.4 M60,49.8c-17.7,0-32,14.3-32,32s14.3,32,32,32s32-14.3,32-32S77.7,49.8,60,49.8"/>
			<path id="Fill-30" class="st4" d="M60,50.9c-17.1,0-31,13.9-31,31s13.9,31,31,31s31-13.9,31-31S77.1,50.9,60,50.9 M60,114.9
				c-18.2,0-33-14.8-33-33s14.8-33,33-33s33,14.8,33,33S78.2,114.9,60,114.9"/>
			<path id="Fill-32" class="st1" d="M86.5,81.9c0,14.6-11.9,26.5-26.5,26.5S33.5,96.5,33.5,81.9S45.4,55.4,60,55.4
				S86.5,67.3,86.5,81.9"/>
			<path id="Fill-34" class="st3" d="M65.8,85.3H54.2c-0.6,0-1-0.4-1-1s0.4-1,1-1h11.7c0.6,0,1,0.4,1,1S66.4,85.3,65.8,85.3"/>
			<path id="Fill-36" class="st3" d="M65.8,80H54.2c-0.6,0-1-0.4-1-1s0.4-1,1-1h11.7c0.6,0,1,0.4,1,1S66.4,80,65.8,80"/>
			<path id="Fill-38" class="st3" d="M62.8,90.5h-6.1c-0.6,0-1-0.4-1-1s0.4-1,1-1h6.1c0.6,0,1,0.4,1,1S63.4,90.5,62.8,90.5"/>
			<g id="Clip-41">
			</g>
			<path id="Fill-40" class="st3" d="M55.2,78h9.7v-2.8h-9.7V78z M65.8,80H54.2c-0.6,0-1-0.4-1-1v-4.8c0-0.6,0.4-1,1-1h11.7
				c0.6,0,1,0.4,1,1V79C66.8,79.6,66.4,80,65.8,80L65.8,80z"/>
			<polygon id="Fill-42" class="st3" points="54.2,79 65.8,79 65.8,74.3 54.2,74.3 			"/>
			<polygon id="Fill-43_1_" class="st0" points="45.6,104.8 47.6,104.8 47.6,59.1 45.6,59.1 			"/>
			<polygon id="Fill-44_1_" class="st0" points="72.4,104.8 74.4,104.8 74.4,59.1 72.4,59.1 			"/>
			<path id="Fill-45" class="st3" d="M47.6,98.3h24.8V65.4H47.6V98.3z M73.4,100.3H46.6c-0.6,0-1-0.4-1-1V64.4c0-0.6,0.4-1,1-1h26.8
				c0.6,0,1,0.4,1,1v34.8C74.4,99.8,73.9,100.3,73.4,100.3L73.4,100.3z"/>
			<path id="Fill-46_2_" class="st4" d="M60,56.4c-14,0-25.5,11.4-25.5,25.5S46,107.4,60,107.4S85.5,96,85.5,81.9S74,56.4,60,56.4
				 M60,109.4c-15.2,0-27.5-12.3-27.5-27.5S44.8,54.4,60,54.4s27.5,12.3,27.5,27.5S75.2,109.4,60,109.4"/>
			<path id="Fill-47" class="st4" d="M105.8,132.3c-1.2,0-2.4-0.5-3.3-1.4L79.6,108c-0.4-0.4-0.4-1,0-1.4s1-0.4,1.4,0l22.9,22.9
				c1,1,2.7,1,3.8,0c1-1,1-2.7,0-3.8l-23.1-23.1c-0.4-0.4-0.4-1,0-1.4s1-0.4,1.4,0l23.1,23.1c1.8,1.8,1.8,4.8,0,6.6
				C108.2,131.9,107,132.3,105.8,132.3"/>
		</g>
		<g id="illo-browse" transform="translate(140.000000, 0.000000)">
			<g id="Group-29" transform="translate(0.000000, 0.610000)">
				<path id="Fill-1_3_" class="st1" d="M2.7,150.3c-0.8,0-1.5-0.7-1.5-1.5V2.8c0-0.8,0.7-1.5,1.5-1.5h116c0.8,0,1.5,0.7,1.5,1.5
					v146c0,0.8-0.7,1.5-1.5,1.5H2.7z"/>
				<path id="Fill-3_3_" class="st2" d="M118.7,0.8H2.7c-1.1,0-2,0.9-2,2v146c0,1.1,0.9,2,2,2h116c1.1,0,2-0.9,2-2V2.8
					C120.7,1.7,119.8,0.8,118.7,0.8 M118.7,1.8c0.6,0,1,0.4,1,1v146c0,0.6-0.4,1-1,1H2.7c-0.6,0-1-0.4-1-1V2.8c0-0.6,0.4-1,1-1
					H118.7"/>
				<path id="Fill-5_2_" class="st0" d="M33.2,59.2H42V59c0-1.2-0.3-2.3-0.9-3.2c-0.1-0.2-0.3-0.4-0.4-0.5l-0.3-0.2
					c-1.1-1-1.4-3.1-1.5-4.5h-2.7c-0.1,1.3-0.5,3.4-1.6,4.4c-0.2,0.2-0.4,0.5-0.6,0.8c-0.6,0.9-0.9,2-0.9,3.2L33.2,59.2z M44.1,61.2
					H31.2v-2.3c0-1.6,0.4-3,1.2-4.2c0.3-0.4,0.6-0.8,0.9-1.2c0.6-0.6,1-2.7,1-4v-1h6.5v1c0,1.3,0.3,3,0.7,3.7l0.3,0.3
					c0.3,0.3,0.6,0.7,0.9,1.2c0.8,1.2,1.2,2.7,1.2,4.2L44.1,61.2z"/>
				<path id="Fill-7_2_" class="st0" d="M36.3,48.5h2.5l-0.1-2.6h-2.3L36.3,48.5z M40.9,50.5h-6.6l0.3-6.6h6.1L40.9,50.5z"/>
				<path id="Fill-9_2_" class="st0" d="M36.5,43.9h2.2v-1.4h-2.2V43.9z M40.6,45.9h-6.2v-3.4c0-1.1,0.9-2,2-2h2.2c1.1,0,2,0.9,2,2
					V45.9z"/>
				<path id="Fill-11_2_" class="st0" d="M21.9,59.2h77.7V41.9c0-2.2-1.8-4-4-4H25.9c-2.2,0-4,1.8-4,4V59.2z M101.5,61.2H19.9V41.9
					c0-3.3,2.7-6,6-6h69.7c3.3,0,6,2.7,6,6L101.5,61.2L101.5,61.2z"/>
				<path id="Fill-12_1_" class="st0" d="M84.4,47.7H56.6c-0.6,0-1-0.4-1-1s0.4-1,1-1h27.8c0.6,0,1,0.4,1,1
					C85.4,47.3,84.9,47.7,84.4,47.7"/>
				<path id="Fill-13_2_" class="st0" d="M72.4,53.3H56.6c-0.6,0-1-0.4-1-1s0.4-1,1-1h15.9c0.6,0,1,0.4,1,1
					C73.4,52.8,73,53.3,72.4,53.3"/>
				<path id="Fill-14_1_" class="st0" d="M33.2,113.7H42v-0.2c0-1.2-0.3-2.3-0.9-3.2c-0.1-0.2-0.3-0.4-0.4-0.6l-0.2-0.2
					c-1.1-1-1.4-3.1-1.5-4.5h-2.7c-0.1,1.3-0.5,3.4-1.6,4.4c-0.6,0.7-1.1,1.6-1.5,2.8L33.2,113.7z M44.1,115.7H31.2l0.1-4
					c0.4-1.5,1.1-2.8,2-3.7c0.6-0.6,1-2.7,1-4v-1h6.5v1c0,1.3,0.3,3,0.7,3.7l0.3,0.3c0.3,0.3,0.6,0.7,0.9,1.2
					c0.8,1.2,1.2,2.7,1.2,4.2L44.1,115.7z"/>
				<path id="Fill-15_2_" class="st0" d="M36.3,103h2.5l-0.1-2.6h-2.3L36.3,103z M40.9,105h-6.6l0.3-6.6h6.1L40.9,105z"/>
				<path id="Fill-16_1_" class="st0" d="M36.5,98.4h2.2V97h-2.2V98.4z M40.6,100.4h-6.2V97c0-1.1,0.9-2,2-2h2.2c1.1,0,2,0.9,2,2
					V100.4z"/>
				<path id="Fill-17_1_" class="st0" d="M21.9,92.4v17.2c0,2.2,1.8,4,4,4h69.7c2.2,0,4-1.8,4-4V92.4H21.9z M95.5,115.7H25.9
					c-3.3,0-6-2.7-6-6V90.4h81.7v19.2C101.5,113,98.8,115.7,95.5,115.7L95.5,115.7z"/>
				<path id="Fill-18_2_" class="st0" d="M84.4,102.3H56.6c-0.6,0-1-0.4-1-1s0.4-1,1-1h27.8c0.6,0,1,0.4,1,1S84.9,102.3,84.4,102.3"
					/>
				<path id="Fill-19_1_" class="st0" d="M72.4,107.8H56.6c-0.6,0-1-0.4-1-1s0.4-1,1-1h15.9c0.6,0,1,0.4,1,1
					C73.4,107.3,73,107.8,72.4,107.8"/>
				<path id="Fill-20_2_" class="st3" d="M51.5,92.4H34.1v-2.8c0-2.2,0.6-4.3,1.8-6c0.3-0.5,0.7-0.9,1.1-1.3c1-0.9,1.5-4,1.6-5.9
					l2,0.1c0,0.6-0.2,5.5-2.2,7.3c-0.3,0.3-0.5,0.6-0.8,1c-0.9,1.4-1.4,3.1-1.4,4.9v0.8h13.2v-0.8c0-1.8-0.5-3.4-1.3-4.8
					c-0.3-0.5-0.6-0.9-1-1.3c-1.9-1.7-2.1-6.7-2.1-7.2l2-0.1c0.1,1.9,0.6,5,1.5,5.9c0.5,0.5,0.9,1.1,1.3,1.6c1,1.6,1.6,3.6,1.6,5.8
					L51.5,92.4z"/>
				<path id="Fill-21_1_" class="st3" d="M46.5,66.8h-2v-2h-3.6v2h-2v-2.1c0-1.1,0.8-2,1.8-2h4.1c1,0,1.8,0.9,1.8,2L46.5,66.8
					L46.5,66.8z"/>
				<path id="Fill-22_2_" class="st3" d="M40.4,68.3c-0.3,0-0.6,0.3-0.6,0.8c0,0.4,0.3,0.8,0.6,0.8H45c0.3,0,0.6-0.3,0.6-0.8
					c0-0.4-0.3-0.8-0.6-0.8H40.4z M45,71.8h-4.6c-1.4,0-2.6-1.2-2.6-2.8c0-1.5,1.2-2.8,2.6-2.8H45c1.4,0,2.6,1.2,2.6,2.8
					C47.6,70.6,46.4,71.8,45,71.8L45,71.8z"/>
				<polygon id="Fill-23_1_" class="st3" points="47,77.4 38.5,77.4 38.8,70.2 40.8,70.3 40.6,75.4 44.9,75.4 44.7,70.3 46.7,70.2 
									"/>
				<path id="Fill-24_2_" class="st4" d="M23.7,61.2c-3.9,0-7,3.1-7,7v15.3c0,3.9,3.1,7,7,7h74c3.9,0,7-3.1,7-7V68.2
					c0-3.9-3.1-7-7-7C97.7,61.2,23.7,61.2,23.7,61.2z M97.7,92.4h-74c-5,0-9-4-9-9V68.2c0-5,4-9,9-9h74c5,0,9,4,9,9v15.3
					C106.7,88.4,102.7,92.4,97.7,92.4L97.7,92.4z"/>
				<path id="Fill-25_1_" class="st4" d="M62.7,71.1h25.8v-1.7H62.7V71.1z M89.5,73.1H61.7c-0.6,0-1-0.4-1-1v-3.7c0-0.6,0.4-1,1-1
					h27.8c0.6,0,1,0.4,1,1v3.7C90.5,72.7,90.1,73.1,89.5,73.1L89.5,73.1z"/>
				<path id="Fill-26_2_" class="st4" d="M89.5,78.7H61.7c-0.6,0-1-0.4-1-1s0.4-1,1-1h27.8c0.6,0,1,0.4,1,1S90.1,78.7,89.5,78.7"/>
				<path id="Fill-27_1_" class="st4" d="M77.6,84.2H61.7c-0.6,0-1-0.4-1-1s0.4-1,1-1h15.9c0.6,0,1,0.4,1,1S78.2,84.2,77.6,84.2"/>
				<path id="Fill-28_1_" class="st3" d="M26.8,79.3l-2.2,1.2c-0.3,0.2-0.8,0.1-0.9-0.3c-0.1-0.1-0.1-0.3-0.1-0.4l0.4-2.6l-1.8-1.9
					c-0.3-0.3-0.3-0.7,0-1c0.1-0.1,0.2-0.2,0.4-0.2l2.5-0.4l1.1-2.3c0.2-0.3,0.6-0.5,0.9-0.3c0.1,0.1,0.3,0.2,0.3,0.3l1.1,2.3
					l2.5,0.4c0.4,0.1,0.6,0.4,0.6,0.8c0,0.1-0.1,0.3-0.2,0.4l-1.8,1.9l0.4,2.6c0.1,0.4-0.2,0.7-0.6,0.8c-0.2,0-0.3,0-0.4-0.1
					L26.8,79.3z"/>
			</g>
		</g>
		<g>
			<path class="st0" d="M170.2,173.9L170.2,173.9c0-2.4,1.8-4.3,4.3-4.3c1.5,0,2.5,0.5,3.3,1.3l-0.9,1.1c-0.7-0.6-1.4-1-2.3-1
				c-1.6,0-2.8,1.3-2.8,2.9v0c0,1.6,1.2,3,2.8,3c1,0,1.7-0.4,2.4-1.1l0.9,1c-0.9,0.9-1.8,1.5-3.4,1.5
				C172.1,178.2,170.2,176.3,170.2,173.9z"/>
			<path class="st0" d="M178.8,173.9L178.8,173.9c0-2.4,1.8-4.3,4.4-4.3s4.4,1.9,4.4,4.3v0c0,2.4-1.8,4.3-4.4,4.3
				C180.6,178.2,178.8,176.3,178.8,173.9z M186,173.9L186,173.9c0-1.6-1.2-3-2.8-3c-1.7,0-2.8,1.3-2.8,2.9v0c0,1.6,1.2,3,2.8,3
				C184.9,176.9,186,175.5,186,173.9z"/>
			<path class="st0" d="M189.3,169.7h1.6l2.5,4l2.5-4h1.6v8.4h-1.5v-6l-2.6,3.9h0l-2.6-3.9v6h-1.4V169.7z"/>
			<path class="st0" d="M199.7,169.7h3.3c1.9,0,3.2,1.1,3.2,2.8v0c0,1.9-1.5,2.9-3.3,2.9h-1.7v2.7h-1.5V169.7z M202.9,174.1
				c1.1,0,1.8-0.6,1.8-1.5v0c0-1-0.7-1.5-1.8-1.5h-1.7v3H202.9z"/>
			<path class="st0" d="M209.8,169.7h1.4l3.7,8.4h-1.6l-0.8-2h-4l-0.9,2h-1.5L209.8,169.7z M211.9,174.7l-1.4-3.3l-1.4,3.3H211.9z"
				/>
			<path class="st0" d="M216.3,169.7h3.7c1.1,0,1.9,0.3,2.4,0.8c0.4,0.5,0.7,1.1,0.7,1.8v0c0,1.4-0.8,2.2-2,2.5l2.3,3.2h-1.7
				l-2.1-2.9h-1.8v2.9h-1.5V169.7z M219.9,173.9c1.1,0,1.7-0.5,1.7-1.4v0c0-0.9-0.6-1.4-1.7-1.4h-2.1v2.8H219.9z"/>
			<path class="st0" d="M224.9,169.7h6.2v1.3h-4.7v2.2h4.2v1.3h-4.2v2.2h4.8v1.3h-6.3V169.7z"/>
		</g>
	</g>
</g>
</svg>
