<?xml version="1.0" encoding="UTF-8"?>
<svg width="120px" height="177px" viewBox="0 0 120 177" version="1.1" xmlns="http://www.w3.org/2000/svg" xmlns:xlink="http://www.w3.org/1999/xlink">
    <!-- Generator: Sketch 47.1 (45422) - http://www.bohemiancoding.com/sketch -->
    <title>illo-search</title>
    <desc>Created with Sketch.</desc>
    <defs>
        <polygon id="path-1" points="4.4408921e-15 150.1563 4.4408921e-15 0.1563 119.9998 0.1563 119.9998 150.1563"></polygon>
        <polygon id="path-3" points="0 177.844 120 177.844 120 1 0 1"></polygon>
    </defs>
    <g id="Design-//-Phase-2" stroke="none" stroke-width="1" fill="none" fill-rule="evenodd">
        <g id="illo-search" transform="translate(0.000000, -1.000000)">
            <path d="M34.5897,176.4768 L35.4777,175.4218 C36.2807,176.1178 37.0847,176.5128 38.1277,176.5128 C39.0397,176.5128 39.6147,176.0928 39.6147,175.4568 L39.6147,175.4338 C39.6147,174.8338 39.2787,174.5098 37.7197,174.1508 C35.9327,173.7188 34.9257,173.1908 34.9257,171.6438 L34.9257,171.6198 C34.9257,170.1808 36.1247,169.1848 37.7917,169.1848 C39.0157,169.1848 39.9867,169.5568 40.8387,170.2408 L40.0467,171.3558 C39.2917,170.7918 38.5357,170.4928 37.7677,170.4928 C36.9047,170.4928 36.4007,170.9358 36.4007,171.4878 L36.4007,171.5118 C36.4007,172.1598 36.7847,172.4478 38.3917,172.8308 C40.1667,173.2628 41.0897,173.8988 41.0897,175.2898 L41.0897,175.3138 C41.0897,176.8848 39.8547,177.8208 38.0917,177.8208 C36.8087,177.8208 35.5967,177.3758 34.5897,176.4768 Z" id="Fill-1" fill="#86929A"></path>
            <polygon id="Fill-3" fill="#86929A" points="42.8338 169.3049 49.0588 169.3049 49.0588 170.6239 44.3088 170.6239 44.3088 172.8069 48.5188 172.8069 48.5188 174.1259 44.3088 174.1259 44.3088 176.3809 49.1178 176.3809 49.1178 177.7009 42.8338 177.7009"></polygon>
            <path d="M55.9588,174.3665 L54.5078,171.0085 L53.0688,174.3665 L55.9588,174.3665 Z M53.8478,169.2455 L55.2148,169.2455 L58.9098,177.7005 L57.3498,177.7005 L56.4988,175.6735 L52.5288,175.6735 L51.6658,177.7005 L50.1538,177.7005 L53.8478,169.2455 Z" id="Fill-5" fill="#86929A"></path>
            <path d="M63.9871,173.467 C65.0431,173.467 65.7141,172.915 65.7141,172.064 L65.7141,172.039 C65.7141,171.14 65.0671,170.649 63.9751,170.649 L61.8281,170.649 L61.8281,173.467 L63.9871,173.467 Z M60.3531,169.305 L64.0951,169.305 C65.1511,169.305 65.9781,169.616 66.5181,170.145 C66.9621,170.6 67.2131,171.224 67.2131,171.955 L67.2131,171.98 C67.2131,173.359 66.3861,174.187 65.2101,174.522 L67.4771,177.7 L65.7381,177.7 L63.6751,174.774 L61.8281,174.774 L61.8281,177.7 L60.3531,177.7 L60.3531,169.305 Z" id="Fill-7" fill="#86929A"></path>
            <path d="M68.6575,173.5266 L68.6575,173.5036 C68.6575,171.1166 70.4445,169.1616 72.9875,169.1616 C74.5345,169.1616 75.4695,169.7006 76.2735,170.4676 L75.3255,171.5596 C74.6545,170.9356 73.9345,170.5166 72.9755,170.5166 C71.3675,170.5166 70.2045,171.8356 70.2045,173.4786 L70.2045,173.5036 C70.2045,175.1456 71.3675,176.4896 72.9755,176.4896 C74.0065,176.4896 74.6665,176.0696 75.3865,175.3976 L76.3335,176.3576 C75.4575,177.2686 74.4985,177.8436 72.9275,177.8436 C70.4805,177.8436 68.6575,175.9376 68.6575,173.5266" id="Fill-9" fill="#86929A"></path>
            <polygon id="Fill-11" fill="#86929A" points="77.8856 169.3049 79.3606 169.3049 79.3606 172.7949 83.3666 172.7949 83.3666 169.3049 84.8416 169.3049 84.8416 177.7009 83.3666 177.7009 83.3666 174.1619 79.3606 174.1619 79.3606 177.7009 77.8856 177.7009"></polygon>
            <path d="M1.9998,150.5002 C1.1728,150.5002 0.4998,149.8272 0.4998,149.0002 L0.4998,3.0002 C0.4998,2.1732 1.1728,1.5002 1.9998,1.5002 L117.9998,1.5002 C118.8268,1.5002 119.4998,2.1732 119.4998,3.0002 L119.4998,149.0002 C119.4998,149.8272 118.8268,150.5002 117.9998,150.5002 L1.9998,150.5002 Z" id="Fill-13" fill="#FFFFFF"></path>
            <g id="Group-17" transform="translate(0.000000, 0.844000)">
                <mask id="mask-2" fill="white">
                    <use xlink:href="#path-1"></use>
                </mask>
                <g id="Clip-16"></g>
                <path d="M117.9998,0.1563 L1.9998,0.1563 C0.8958,0.1563 -0.0002,1.0523 -0.0002,2.1563 L-0.0002,148.1563 C-0.0002,149.2603 0.8958,150.1563 1.9998,150.1563 L117.9998,150.1563 C119.1038,150.1563 119.9998,149.2603 119.9998,148.1563 L119.9998,2.1563 C119.9998,1.0523 119.1038,0.1563 117.9998,0.1563 M117.9998,1.1563 C118.5518,1.1563 118.9998,1.6043 118.9998,2.1563 L118.9998,148.1563 C118.9998,148.7083 118.5518,149.1563 117.9998,149.1563 L1.9998,149.1563 C1.4488,149.1563 0.9998,148.7083 0.9998,148.1563 L0.9998,2.1563 C0.9998,1.6043 1.4488,1.1563 1.9998,1.1563 L117.9998,1.1563" id="Fill-15" fill="#DADADA" mask="url(#mask-2)"></path>
            </g>
            <path d="M68.6483,124.3704 L51.3523,124.3704 C49.4093,124.3704 47.8283,122.7894 47.8283,120.8474 L47.8283,106.8304 L47.9093,67.4634 L47.9633,64.8114 C47.9733,61.8014 48.7543,58.9804 50.2203,56.6734 C50.7353,55.8624 51.3203,55.1134 51.9593,54.4474 L52.1803,54.6594 L51.9693,54.4374 L52.5293,54.9824 L52.0053,54.4034 C53.5483,53.0074 54.2653,48.2284 54.3543,45.5454 L56.3533,45.6114 C56.3273,46.4054 56.0193,53.4164 53.3773,55.8584 C52.8403,56.4224 52.3463,57.0574 51.9093,57.7454 C50.6453,59.7344 49.9723,62.1854 49.9633,64.8354 L49.9093,67.4854 L49.8283,106.8324 L49.8283,120.8474 C49.8283,121.6864 50.5113,122.3704 51.3523,122.3704 L68.6483,122.3704 C69.4883,122.3704 70.1723,121.6864 70.1723,120.8474 L70.1723,106.8304 L70.0363,64.8354 C70.0273,62.1854 69.3553,59.7344 68.0913,57.7454 C67.6543,57.0574 67.1603,56.4224 66.6223,55.8584 C63.9803,53.4164 63.6733,46.4054 63.6473,45.6114 L65.6463,45.5454 C65.7113,47.4764 66.2603,52.8344 67.9953,54.4034 L67.5173,54.9324 L68.0263,54.4324 L67.7343,54.7414 L68.0413,54.4474 C68.6793,55.1134 69.2643,55.8624 69.7793,56.6734 C71.2463,58.9804 72.0263,61.8014 72.0363,64.8294 L72.1723,106.8274 L72.1723,120.8474 C72.1723,122.7894 70.5913,124.3704 68.6483,124.3704" id="Fill-18" fill="#86929A"></path>
            <path d="M56.9525,31.1038 L63.0475,31.1038 L63.0475,29.7238 C63.0475,29.6718 63.0055,29.6298 62.9535,29.6298 L57.0465,29.6298 C56.9945,29.6298 56.9525,29.6718 56.9525,29.7238 L56.9525,31.1038 Z M64.0475,33.1038 L55.9525,33.1038 C55.4005,33.1038 54.9525,32.6568 54.9525,32.1038 L54.9525,29.7238 C54.9525,28.5698 55.8915,27.6298 57.0465,27.6298 L62.9535,27.6298 C64.1085,27.6298 65.0475,28.5698 65.0475,29.7238 L65.0475,32.1038 C65.0475,32.6568 64.5995,33.1038 64.0475,33.1038 L64.0475,33.1038 Z" id="Fill-20" fill="#86929A"></path>
            <path d="M56.6522,33.1038 C55.9452,33.1038 55.3702,33.5738 55.3702,34.1518 C55.3702,34.7288 55.9452,35.1988 56.6522,35.1988 L63.3482,35.1988 C64.0552,35.1988 64.6302,34.7288 64.6302,34.1518 C64.6302,33.5738 64.0552,33.1038 63.3482,33.1038 L56.6522,33.1038 Z M63.3482,37.1988 L56.6522,37.1988 C54.8422,37.1988 53.3702,35.8318 53.3702,34.1518 C53.3702,32.4708 54.8422,31.1038 56.6522,31.1038 L63.3482,31.1038 C65.1582,31.1038 66.6302,32.4708 66.6302,34.1518 C66.6302,35.8318 65.1582,37.1988 63.3482,37.1988 L63.3482,37.1988 Z" id="Fill-22" fill="#86929A"></path>
            <path d="M56.3934,44.5784 L63.6064,44.5784 L63.3214,37.1984 L56.6794,37.1984 L56.3934,44.5784 Z M65.6854,46.5784 L54.3144,46.5784 L54.7554,35.1984 L65.2454,35.1984 L65.6854,46.5784 Z" id="Fill-24" fill="#86929A"></path>
            <path d="M59.9998,105.5491 C46.9328,105.5491 36.3388,94.9551 36.3388,81.8881 C36.3388,68.8201 46.9328,58.2271 59.9998,58.2271 C73.0678,58.2271 83.6608,68.8201 83.6608,81.8881 C83.6608,94.9551 73.0678,105.5491 59.9998,105.5491" id="Fill-26" fill="#FFFFFF"></path>
            <path d="M59.9998,108.3567 C45.3768,108.3567 33.5228,96.5027 33.5228,81.8787 C33.5228,67.2557 45.3768,55.4027 59.9998,55.4027 C74.6228,55.4027 86.4768,67.2557 86.4768,81.8787 C86.4768,96.5027 74.6228,108.3567 59.9998,108.3567 M59.9998,49.8487 C42.3238,49.8487 27.9948,64.1777 27.9948,81.8537 C27.9948,99.5297 42.3238,113.8587 59.9998,113.8587 C77.6758,113.8587 92.0048,99.5297 92.0048,81.8537 C92.0048,64.1777 77.6758,49.8487 59.9998,49.8487" id="Fill-28" fill="#FFFFFF"></path>
            <path d="M59.9998,50.8831 C42.9038,50.8831 28.9948,64.7921 28.9948,81.8881 C28.9948,98.9841 42.9038,112.8931 59.9998,112.8931 C77.0958,112.8931 91.0048,98.9841 91.0048,81.8881 C91.0048,64.7921 77.0958,50.8831 59.9998,50.8831 M59.9998,114.8931 C41.8008,114.8931 26.9948,100.0871 26.9948,81.8881 C26.9948,63.6891 41.8008,48.8831 59.9998,48.8831 C78.1988,48.8831 93.0048,63.6891 93.0048,81.8881 C93.0048,100.0871 78.1988,114.8931 59.9998,114.8931" id="Fill-30" fill="#333E48"></path>
            <path d="M86.4769,81.9133 C86.4769,96.5363 74.6229,108.3913 59.9999,108.3913 C45.3769,108.3913 33.5229,96.5363 33.5229,81.9133 C33.5229,67.2903 45.3769,55.4363 59.9999,55.4363 C74.6229,55.4363 86.4769,67.2903 86.4769,81.9133" id="Fill-32" fill="#FFFFFF"></path>
            <path d="M65.848,85.2893 L54.152,85.2893 C53.599,85.2893 53.152,84.8423 53.152,84.2893 C53.152,83.7363 53.599,83.2893 54.152,83.2893 L65.848,83.2893 C66.4,83.2893 66.848,83.7363 66.848,84.2893 C66.848,84.8423 66.4,85.2893 65.848,85.2893" id="Fill-34" fill="#00AD68"></path>
            <path d="M65.848,80.0344 L54.152,80.0344 C53.599,80.0344 53.152,79.5874 53.152,79.0344 C53.152,78.4814 53.599,78.0344 54.152,78.0344 L65.848,78.0344 C66.4,78.0344 66.848,78.4814 66.848,79.0344 C66.848,79.5874 66.4,80.0344 65.848,80.0344" id="Fill-36" fill="#00AD68"></path>
            <path d="M62.8118,90.5432 L56.6728,90.5432 C56.1208,90.5432 55.6728,90.0962 55.6728,89.5432 C55.6728,88.9902 56.1208,88.5432 56.6728,88.5432 L62.8118,88.5432 C63.3638,88.5432 63.8118,88.9902 63.8118,89.5432 C63.8118,90.0962 63.3638,90.5432 62.8118,90.5432" id="Fill-38" fill="#00AD68"></path>
            <mask id="mask-4" fill="white">
                <use xlink:href="#path-3"></use>
            </mask>
            <g id="Clip-41"></g>
            <path d="M55.152,78.034 L64.849,78.034 L64.849,75.283 L55.152,75.283 L55.152,78.034 Z M65.848,80.034 L54.152,80.034 C53.599,80.034 53.152,79.587 53.152,79.034 L53.152,74.283 C53.152,73.731 53.599,73.283 54.152,73.283 L65.848,73.283 C66.401,73.283 66.848,73.731 66.848,74.283 L66.848,79.034 C66.848,79.587 66.401,80.034 65.848,80.034 L65.848,80.034 Z" id="Fill-40" fill="#00AD68" mask="url(#mask-4)"></path>
            <polygon id="Fill-42" fill="#00AD68" mask="url(#mask-4)" points="54.151 79.034 65.848 79.034 65.848 74.283 54.151 74.283"></polygon>
            <polygon id="Fill-43" fill="#86929A" mask="url(#mask-4)" points="45.612 104.849 47.612 104.849 47.612 59.067 45.612 59.067"></polygon>
            <polygon id="Fill-44" fill="#86929A" mask="url(#mask-4)" points="72.388 104.76 74.388 104.76 74.388 59.067 72.388 59.067"></polygon>
            <path d="M47.612,98.264 L72.388,98.264 L72.388,65.444 L47.612,65.444 L47.612,98.264 Z M73.388,100.264 L46.612,100.264 C46.059,100.264 45.612,99.817 45.612,99.264 L45.612,64.444 C45.612,63.891 46.059,63.444 46.612,63.444 L73.388,63.444 C73.94,63.444 74.388,63.891 74.388,64.444 L74.388,99.264 C74.388,99.817 73.94,100.264 73.388,100.264 L73.388,100.264 Z" id="Fill-45" fill="#00AD68" mask="url(#mask-4)"></path>
            <path d="M59.9998,56.4368 C45.9518,56.4368 34.5228,67.8658 34.5228,81.9138 C34.5228,95.9618 45.9518,107.3908 59.9998,107.3908 C74.0478,107.3908 85.4768,95.9618 85.4768,81.9138 C85.4768,67.8658 74.0478,56.4368 59.9998,56.4368 M59.9998,109.3908 C44.8498,109.3908 32.5228,97.0648 32.5228,81.9138 C32.5228,66.7628 44.8498,54.4368 59.9998,54.4368 C75.1508,54.4368 87.4768,66.7628 87.4768,81.9138 C87.4768,97.0648 75.1508,109.3908 59.9998,109.3908" id="Fill-46" fill="#333E48" mask="url(#mask-4)"></path>
            <path d="M105.7864,132.3381 C104.5914,132.3381 103.3964,131.8841 102.4864,130.9741 L79.5924,108.0791 C79.2024,107.6891 79.2024,107.0561 79.5924,106.6651 C79.9834,106.2751 80.6164,106.2751 81.0064,106.6651 L103.9004,129.5601 C104.9404,130.5981 106.6314,130.6001 107.6714,129.5601 C108.7114,128.5201 108.7114,126.8291 107.6714,125.7891 L84.5614,102.6791 C84.1714,102.2881 84.1714,101.6551 84.5614,101.2651 C84.9524,100.8741 85.5854,100.8741 85.9754,101.2651 L109.0854,124.3751 C110.9054,126.1941 110.9054,129.1541 109.0854,130.9741 C108.1764,131.8831 106.9814,132.3381 105.7864,132.3381" id="Fill-47" fill="#333E48" mask="url(#mask-4)"></path>
        </g>
    </g>
</svg>