<?xml version="1.0" encoding="utf-8"?>
<!-- Generator: Adobe Illustrator 22.0.1, SVG Export Plug-In . SVG Version: 6.00 Build 0)  -->
<svg version="1.1" id="Layer_1" xmlns="http://www.w3.org/2000/svg" xmlns:xlink="http://www.w3.org/1999/xlink" x="0px" y="0px"
	 viewBox="0 0 120 177" style="enable-background:new 0 0 120 177;" xml:space="preserve">
<style type="text/css">
	.st0{fill:#FFFFFF;}
	.st1{filter:url(#Adobe_OpacityMaskFilter);}
	.st2{mask:url(#mask-2_1_);fill:#DADADA;}
	.st3{fill:#86929A;}
	.st4{filter:url(#Adobe_OpacityMaskFilter_1_);}
	.st5{mask:url(#mask-4_1_);fill:#00AD68;}
	.st6{fill:#333E48;}
	.st7{filter:url(#Adobe_OpacityMaskFilter_2_);}
	.st8{mask:url(#mask-6_1_);fill:#00AD68;}
</style>
<title>illo-enjoy</title>
<desc>Created with Sketch.</desc>
<g id="Design-_x2F__x2F_-Phase-2">
	<g id="illo-enjoy" transform="translate(0.000000, -1.000000)">
		<path id="Fill-1" class="st0" d="M2,150.5c-0.8,0-1.5-0.7-1.5-1.5V3c0-0.8,0.7-1.5,1.5-1.5h116c0.8,0,1.5,0.7,1.5,1.5v146
			c0,0.8-0.7,1.5-1.5,1.5H2z"/>
		<g id="Group-5" transform="translate(0.000000, 0.844000)">
			<g id="Clip-4">
			</g>
			<defs>
				<filter id="Adobe_OpacityMaskFilter" filterUnits="userSpaceOnUse" x="0" y="0.2" width="120" height="150">
					<feColorMatrix  type="matrix" values="1 0 0 0 0  0 1 0 0 0  0 0 1 0 0  0 0 0 1 0"/>
				</filter>
			</defs>
			<mask maskUnits="userSpaceOnUse" x="0" y="0.2" width="120" height="150" id="mask-2_1_">
				<g class="st1">
					<polygon id="path-1_1_" class="st0" points="0,150.2 0,0.2 120,0.2 120,150.2 					"/>
				</g>
			</mask>
			<path id="Fill-3" class="st2" d="M118,0.2H2c-1.1,0-2,0.9-2,2v146c0,1.1,0.9,2,2,2h116c1.1,0,2-0.9,2-2V2.2
				C120,1.1,119.1,0.2,118,0.2 M118,1.2c0.6,0,1,0.4,1,1v146c0,0.6-0.4,1-1,1H2c-0.6,0-1-0.4-1-1V2.2c0-0.6,0.4-1,1-1H118"/>
		</g>
		<path id="Fill-6" class="st3" d="M68.6,124.4H51.4c-1.9,0-3.5-1.6-3.5-3.5v-14l0.1-42c0-3,0.8-5.8,2.3-8.2
			c0.5-0.8,1.1-1.6,1.7-2.2l0.2,0.2L52,54.4l0.6,0.5L52,54.4c1.5-1.4,2.3-6.2,2.3-8.9l2,0.1c0,0.8-0.3,7.8-3,10.2
			c-0.5,0.6-1,1.2-1.5,1.9c-1.3,2-1.9,4.4-1.9,7.1l-0.1,42v14c0,0.8,0.7,1.5,1.5,1.5h17.3c0.8,0,1.5-0.7,1.5-1.5v-14l-0.1-42
			c0-2.7-0.7-5.1-1.9-7.1c-0.4-0.7-0.9-1.3-1.5-1.9c-2.6-2.4-2.9-9.5-3-10.2l2-0.1c0.1,1.9,0.6,7.3,2.3,8.9l-0.5,0.5l0.5-0.5
			l-0.3,0.3l0.3-0.3c0.6,0.7,1.2,1.4,1.7,2.2c1.5,2.3,2.2,5.1,2.3,8.2l0.1,42v14C72.2,122.8,70.6,124.4,68.6,124.4"/>
		<path id="Fill-8" class="st3" d="M57,31.1H63v-1.4c0-0.1,0-0.1-0.1-0.1H57c-0.1,0-0.1,0-0.1,0.1V31.1z M64,33.1H56
			c-0.6,0-1-0.4-1-1v-2.4c0-1.2,0.9-2.1,2.1-2.1H63c1.2,0,2.1,0.9,2.1,2.1v2.4C65,32.7,64.6,33.1,64,33.1L64,33.1z"/>
		<path id="Fill-10" class="st3" d="M56.7,33.1c-0.7,0-1.3,0.5-1.3,1c0,0.6,0.6,1,1.3,1h6.7c0.7,0,1.3-0.5,1.3-1c0-0.6-0.6-1-1.3-1
			H56.7z M63.3,37.2h-6.7c-1.8,0-3.3-1.4-3.3-3c0-1.7,1.5-3,3.3-3h6.7c1.8,0,3.3,1.4,3.3,3C66.6,35.8,65.2,37.2,63.3,37.2L63.3,37.2
			z"/>
		<path id="Fill-12" class="st3" d="M56.4,44.6h7.2l-0.3-7.4h-6.6L56.4,44.6z M65.7,46.6H54.3l0.4-11.4h10.5L65.7,46.6z"/>
		<path id="Fill-14" class="st3" d="M64.3,84.6h-8.7c-0.6,0-1-0.4-1-1c0-0.6,0.4-1,1-1h8.7c0.6,0,1,0.4,1,1
			C65.3,84.1,64.9,84.6,64.3,84.6"/>
		<path id="Fill-16" class="st3" d="M64.4,78.8h-8.8c-0.5,0-1-0.4-1-1v-1.4c0-0.5,0.4-1,1-1h8.8c0.5,0,1,0.4,1,1v1.4
			C65.3,78.3,64.9,78.8,64.4,78.8"/>
		<path id="Fill-18" class="st3" d="M64.3,76.4l-8.7,0l0,1.4l8.7,0V76.4z M64.4,79.8h-8.8c-1.1,0-2-0.9-2-2v-1.4c0-1.1,0.9-2,2-2
			h8.8c1.1,0,2,0.9,2,2v1.4C66.3,78.9,65.5,79.8,64.4,79.8L64.4,79.8z"/>
		<path id="Fill-20" class="st3" d="M62.6,89.4H57c-0.6,0-1-0.4-1-1s0.4-1,1-1h5.6c0.6,0,1,0.4,1,1S63.1,89.4,62.6,89.4"/>
		<path id="Fill-22" class="st3" d="M49.9,95.3h20.3V68.5H50L49.9,95.3z M72.2,97.3H47.9L48,66.5h24L72.2,97.3z"/>
		<path id="Fill-24" class="st0" d="M52.7,87.4c0,6-4.8,10.8-10.8,10.8c-6,0-10.8-4.8-10.8-10.8l0.1-1.7l3.6-17.3
			c0.1-0.5,0.6-0.9,1.1-0.9h6.1H48c0.5,0,1,0.4,1.1,0.9l3.5,17.3L52.7,87.4z"/>
		<g id="Group-28" transform="translate(0.000000, 79.844000)">
			<g id="Clip-27">
			</g>
			<defs>
				<filter id="Adobe_OpacityMaskFilter_1_" filterUnits="userSpaceOnUse" x="-7757.1" y="0.9" width="16383" height="14.3">
					<feColorMatrix  type="matrix" values="1 0 0 0 0  0 1 0 0 0  0 0 1 0 0  0 0 0 1 0"/>
				</filter>
			</defs>
			<mask maskUnits="userSpaceOnUse" x="-7757.1" y="0.9" width="16383" height="14.3" id="mask-4_1_">
				<g class="st4">
					<polygon id="path-3_1_" class="st0" points="0,15.2 0,0.9 120,0.9 120,15.2 					"/>
				</g>
			</mask>
			<path id="Fill-26" class="st5" d="M8625.9,0.9 M-7757.1,0.9 M49,3.5l0.5,2.6l0.1,1.4c-0.1,4.3-3.5,7.7-7.8,7.7
				c-4.3,0-7.8-3.5-7.8-7.7l0.1-1.4l0.5-2.6C35,2,36.3,0.9,37.9,0.9h8C47.4,0.9,48.7,2,49,3.5"/>
		</g>
		<path id="Fill-29" class="st6" d="M32.2,85.8l-0.1,1.6c0,5.3,4.4,9.7,9.8,9.7c5.4,0,9.8-4.4,9.8-9.8l-0.1-1.6l-3.5-17.3
			c0,0,0-0.1-0.1-0.1H35.8c0,0-0.1,0-0.1,0.1L32.2,85.8z M41.9,99.2c-6.5,0-11.8-5.3-11.8-11.8l0.1-1.8c0,0,0-0.1,0-0.1l3.6-17.3
			c0.2-1,1.1-1.7,2.1-1.7H48c1,0,1.9,0.7,2.1,1.7l3.5,17.3c0,0,0,0.1,0,0.1l0.1,1.7c0,0,0,0.1,0,0.1C53.7,93.9,48.4,99.2,41.9,99.2
			L41.9,99.2z"/>
		<path id="Fill-31" class="st6" d="M39.2,124l-1.6-1.3c7.4-9.1,0-24.8-0.1-24.9l1.8-0.9C39.6,97.6,47.3,114,39.2,124"/>
		<path id="Fill-33" class="st6" d="M44.6,124c-8.2-10-0.5-26.4-0.1-27l1.8,0.9c-0.1,0.2-7.5,15.9-0.1,24.9L44.6,124z"/>
		<path id="Fill-35" class="st6" d="M50.9,124.4H32.9c-0.6,0-1-0.4-1-1s0.4-1,1-1h17.9c0.6,0,1,0.4,1,1S51.4,124.4,50.9,124.4"/>
		<path id="Fill-37" class="st0" d="M88.9,87.4c0,6-4.8,10.8-10.8,10.8c-6,0-10.8-4.8-10.8-10.8l0.1-1.7L71,68.3
			c0.1-0.5,0.6-0.9,1.1-0.9h6.1h6.1c0.5,0,1,0.4,1.1,0.9l3.6,17.3L88.9,87.4z"/>
		<path id="Fill-39" class="st6" d="M68.5,85.9l-0.1,1.6c0,5.3,4.4,9.7,9.8,9.7c5.4,0,9.8-4.4,9.8-9.8l-0.1-1.6l-3.5-17.2
			c0,0,0-0.1-0.1-0.1H72.1c0,0-0.1,0-0.1,0.1L68.5,85.9z M78.1,99.2c-6.5,0-11.8-5.3-11.8-11.8l0.1-1.8c0,0,0-0.1,0-0.1L70,68.3
			c0.2-1,1.1-1.7,2-1.7h12.1c1,0,1.9,0.7,2,1.7l3.5,17.3c0,0,0,0.1,0,0.1l0.1,1.7c0,0,0,0.1,0,0.1C89.9,94,84.6,99.2,78.1,99.2
			L78.1,99.2z"/>
		<g id="Group-43" transform="translate(0.000000, 79.844000)">
			<g id="Clip-42">
			</g>
			<defs>
				<filter id="Adobe_OpacityMaskFilter_2_" filterUnits="userSpaceOnUse" x="-7668" y="0.9" width="16383" height="141">
					<feColorMatrix  type="matrix" values="1 0 0 0 0  0 1 0 0 0  0 0 1 0 0  0 0 0 1 0"/>
				</filter>
			</defs>
			<mask maskUnits="userSpaceOnUse" x="-7668" y="0.9" width="16383" height="141" id="mask-6_1_">
				<g class="st7">
					<polygon id="path-5_1_" class="st0" points="0,15.2 0,0.9 120,0.9 120,15.2 					"/>
				</g>
			</mask>
			<path id="Fill-41" class="st8" d="M8715,142 M-7668,142 M85.2,3.5l0.5,2.6l0.1,1.4c-0.1,4.3-3.5,7.7-7.8,7.7
				c-4.3,0-7.8-3.5-7.8-7.7l0.1-1.4l0.5-2.6C71.1,2,72.5,0.9,74,0.9h8C83.6,0.9,84.9,2,85.2,3.5"/>
		</g>
		<path id="Fill-44" class="st6" d="M75.4,124l-1.6-1.3c7.4-9,0-24.7-0.1-24.9l1.8-0.9C75.9,97.7,83.6,114,75.4,124"/>
		<path id="Fill-46" class="st6" d="M80.8,124c-8.1-10-0.5-26.3-0.1-27l1.8,0.9c-0.1,0.2-7.5,15.8-0.1,24.9L80.8,124z"/>
		<path id="Fill-48" class="st6" d="M87.1,124.4H69.2c-0.6,0-1-0.4-1-1s0.4-1,1-1h17.9c0.6,0,1,0.4,1,1S87.6,124.4,87.1,124.4"/>
		<polygon id="Fill-50" class="st3" points="39.9,169.3 46.2,169.3 46.2,170.6 41.4,170.6 41.4,172.8 45.6,172.8 45.6,174.1 
			41.4,174.1 41.4,176.4 46.2,176.4 46.2,177.7 39.9,177.7 		"/>
		<polygon id="Fill-52" class="st3" points="48,169.3 49.3,169.3 53.8,175.1 53.8,169.3 55.3,169.3 55.3,177.7 54.1,177.7 
			49.4,171.7 49.4,177.7 48,177.7 		"/>
		<path id="Fill-54" class="st3" d="M56.6,176.5l1-1c0.5,0.6,1,1,1.7,1c0.8,0,1.3-0.5,1.3-1.6v-5.5h1.5v5.5c0,1-0.3,1.7-0.8,2.2
			c-0.5,0.5-1.2,0.7-2,0.7C58,177.8,57.2,177.2,56.6,176.5"/>
		<path id="Fill-56" class="st3" d="M71,173.5L71,173.5c0-1.7-1.2-3-2.9-3s-2.8,1.3-2.8,3v0c0,1.6,1.2,3,2.9,3
			C69.9,176.5,71,175.2,71,173.5 M63.8,173.5L63.8,173.5c0-2.4,1.8-4.4,4.4-4.4c2.6,0,4.4,2,4.4,4.3v0c0,2.4-1.8,4.3-4.4,4.3
			C65.6,177.8,63.8,175.9,63.8,173.5"/>
		<polygon id="Fill-58" class="st3" points="76.1,174.4 72.8,169.3 74.5,169.3 76.9,173 79.2,169.3 80.9,169.3 77.6,174.4 
			77.6,177.7 76.1,177.7 		"/>
	</g>
</g>
</svg>
