<svg xmlns="http://www.w3.org/2000/svg" width="25" height="13" viewBox="0 0 25 13">
    <g fill="#FFF" fill-rule="evenodd">
        <path d="M20.838 7.65l-3.636 3.386a1.095 1.095 0 0 0 0 1.627 1.3 1.3 0 0 0 1.747 0l5.69-5.3c.255-.237.374-.552.36-.863a1.104 1.104 0 0 0-.36-.863l-5.69-5.3A1.278 1.278 0 0 0 18.075 0a1.28 1.28 0 0 0-.873.337 1.095 1.095 0 0 0 0 1.627l3.636 3.386h-8.603C11.553 5.35 11 5.865 11 6.5c0 .635.553 1.15 1.235 1.15h8.603zM1.35 6h5.3C7.397 6 8 6.448 8 7s-.604 1-1.35 1h-5.3C.603 8 0 7.552 0 7s.604-1 1.35-1"/>
    </g>
</svg>
