<svg xmlns="http://www.w3.org/2000/svg" width="25" height="13" viewBox="0 0 25 13">
    <g fill="#333E48" fill-rule="evenodd">
        <path d="M4.305 5.29l3.76-3.348a1.052 1.052 0 0 0 0-1.609 1.391 1.391 0 0 0-1.806 0L.373 5.575A1.069 1.069 0 0 0 0 6.428c-.015.307.108.62.372.854l5.886 5.241c.249.222.576.333.903.333.327 0 .654-.11.903-.333a1.052 1.052 0 0 0 0-1.609l-3.76-3.348h8.897c.705 0 1.277-.51 1.277-1.138 0-.628-.572-1.137-1.277-1.137H4.305zM23.631 7.619h-5.018c-.705 0-1.277-.51-1.277-1.138 0-.628.572-1.137 1.277-1.137h5.018c.706 0 1.278.51 1.278 1.137 0 .629-.572 1.138-1.278 1.138"/>
    </g>
</svg>
