<svg xmlns="http://www.w3.org/2000/svg" width="12" height="35" viewBox="0 0 12 35">
    <g fill="#86929A" fill-rule="nonzero">
        <path d="M12 1.132C11.988.506 11.496.003 10.892 0h-9.77C.501 0 0 .52 0 1.161l.947 11.34c.022.328.566 7.61 4.57 8.316l-.149 12.616H1.734a.643.643 0 0 0-.632.654c0 .362.283.655.632.655h8.545a.643.643 0 0 0 .632-.655.643.643 0 0 0-.632-.654H6.632L6.77 20.82c3.852-.713 4.522-7.906 4.55-8.246L12 1.187v-.055zm-1.926 11.344a17.934 17.934 0 0 1-.783 3.686c-.765 2.264-1.82 3.409-3.133 3.409-3.363 0-3.947-7.089-3.947-7.17L1.263 1.307h9.474l-.663 11.168z"/>
        <path d="M6.104 18.475c2.416 0 2.842-4.966 2.842-4.966l.281-4.873a10.629 10.629 0 0 0-6.243.075l-.095.03.383 4.716s.31 5.018 2.832 5.018z"/>
    </g>
</svg>
