<svg xmlns="http://www.w3.org/2000/svg" xmlns:xlink="http://www.w3.org/1999/xlink" width="18" height="12" viewBox="0 0 18 12">
    <defs>
        <path id="a" d="M1 2a1 1 0 1 1 0-2h16a1 1 0 0 1 0 2H1zm0 5a1 1 0 1 1 0-2h10a1 1 0 0 1 0 2H1zm0 5a1 1 0 0 1 0-2h16a1 1 0 0 1 0 2H1z"/>
    </defs>
    <g fill="none" fill-rule="evenodd">
        <mask id="b" fill="#fff">
            <use xlink:href="#a"/>
        </mask>
        <use fill="#979797" xlink:href="#a"/>
        <g fill="#333E48" mask="url(#b)">
            <path d="M-3-6h24v24H-3z"/>
        </g>
    </g>
</svg>
