<svg xmlns="http://www.w3.org/2000/svg" viewBox="0 0 396.85 102.25"><defs><style>.cls-1{fill:#00ac69;}.cls-2{fill:#fff;}</style></defs><title>Asset 3</title><g id="Layer_2" data-name="Layer 2"><g id="Layer_1-2" data-name="Layer 1"><path class="cls-1" d="M125.27,39.2h-4.61V32.26h4.61V29.57c0-4,1-7,3-8.93s4.6-2.89,8.18-2.89a22.34,22.34,0,0,1,6.74,1v7a14.91,14.91,0,0,0-4.89-.89c-3.16,0-4.81,1.72-4.81,5.5v2h9.63V39.2h-9.49V68.35h-8.32Z"/><rect class="cls-1" x="149.75" y="32.06" width="8.32" height="36.28"/><path class="cls-1" d="M164.65,32.05H173v5.57c2.33-3.37,5.7-6.33,11.34-6.33,8.18,0,12.92,5.5,12.92,13.89V68.35h-8.32V47.73c0-5.64-2.81-8.87-7.76-8.87s-8.18,3.36-8.18,9V68.35h-8.32Z"/><path class="cls-1" d="M203.69,50.27v-.14c0-12,8.19-18.84,16.85-18.84a14.84,14.84,0,0,1,12.37,6.4V18.16h8.32V68.35h-8.32v-6c-2.68,3.78-6.46,6.8-12.37,6.8C212,69.1,203.69,62.3,203.69,50.27Zm29.36,0v-.14c0-7-5-11.62-10.52-11.62s-10.45,4.4-10.45,11.62v.14c0,7,4.81,11.62,10.45,11.62S233.05,57.21,233.05,50.27Z"/><path class="cls-2" d="M246.93,32.05h8.53l7.28,24.88,8.05-25h7.15l8,25,7.42-24.88h8.39l-11.9,36.57h-7.48l-8.12-24.81-8.18,24.81h-7.43Z"/><path class="cls-2" d="M307.91,32.05h8.31v36.3h-8.31Z"/><path class="cls-2" d="M322.81,32.05h8.32v5.57c2.34-3.37,5.71-6.33,11.34-6.33,8.18,0,12.93,5.5,12.93,13.89V68.35h-8.32V47.73c0-5.64-2.82-8.87-7.77-8.87s-8.18,3.36-8.18,9V68.35h-8.32Z"/><path class="cls-2" d="M361.72,50.34V50.2c0-10.38,7.36-18.91,17.74-18.91,11.55,0,17.39,9.08,17.39,19.53,0,.75-.07,1.51-.14,2.33H370c.89,5.92,5.08,9.22,10.45,9.22,4.05,0,6.94-1.51,9.83-4.33l4.88,4.33a18.37,18.37,0,0,1-14.85,6.8C369.83,69.17,361.72,61.54,361.72,50.34Zm26.88-2.68c-.55-5.37-3.72-9.56-9.21-9.56-5.09,0-8.67,3.92-9.43,9.56Z"/><path class="cls-1" d="M149.19,22.87a4.71,4.71,0,1,1,4.71,4.71A4.71,4.71,0,0,1,149.19,22.87Z"/><path class="cls-2" d="M307.35,22.87a4.71,4.71,0,1,1,4.72,4.71A4.72,4.72,0,0,1,307.35,22.87Z"/><path class="cls-1" d="M32.66,73.33A13.6,13.6,0,1,1,46.25,86.92,13.6,13.6,0,0,1,32.66,73.33Z"/><path class="cls-1" d="M65.32,13.61a13.6,13.6,0,1,1,13.6,13.6A13.6,13.6,0,0,1,65.32,13.61Z"/><path class="cls-1" d="M0,13.61a13.6,13.6,0,1,1,13.6,13.6A13.61,13.61,0,0,1,0,13.61Z"/><path class="cls-1" d="M32.65,13.6a13.61,13.61,0,1,1,13.6,13.6A13.6,13.6,0,0,1,32.65,13.6Z"/><path class="cls-2" d="M83.87,61.56,73.37,51.07a13.68,13.68,0,1,0-3.69,3.68l10.49,10.5a2.62,2.62,0,0,0,3.69,0A2.63,2.63,0,0,0,83.87,61.56ZM52.56,43.47A9.53,9.53,0,1,1,62.08,53,9.54,9.54,0,0,1,52.56,43.47Z"/><path class="cls-1" d="M16.84,43.47a13.6,13.6,0,1,1,13.6,13.6A13.6,13.6,0,0,1,16.84,43.47Z"/><path class="cls-1" d="M347.24,85.94h7.19a5.76,5.76,0,0,1,4.19,1.42A3.59,3.59,0,0,1,359.7,90v0a3.81,3.81,0,0,1-2.29,3.57c1.88.65,3.19,1.72,3.19,3.9v0c0,2.86-2.36,4.39-5.94,4.39h-7.42Zm9.64,4.53c0-1.26-1-2-2.81-2H350V92.7h3.85c1.81,0,3-.71,3-2.18Zm-2.4,4.61H350v4.4h4.67c1.93,0,3.1-.76,3.1-2.2v0C357.78,95.88,356.7,95.08,354.48,95.08Z"/><path class="cls-1" d="M362.8,96v0a6,6,0,0,1,5.91-6.29c3.85,0,5.8,3,5.8,6.5,0,.25,0,.5-.05.78h-8.89a3.38,3.38,0,0,0,3.48,3.07,4.38,4.38,0,0,0,3.28-1.44L374,100a6.12,6.12,0,0,1-4.95,2.27A6,6,0,0,1,362.8,96Zm9-.89c-.19-1.79-1.24-3.19-3.07-3.19s-2.89,1.31-3.14,3.19Z"/><path class="cls-1" d="M377.71,98.7V92.33h-1.54V90h1.54V86.63h2.77V90h3.25v2.38h-3.25v5.93A1.32,1.32,0,0,0,382,99.77a3.67,3.67,0,0,0,1.72-.41v2.27a4.79,4.79,0,0,1-2.5.62C379.15,102.25,377.71,101.36,377.71,98.7Z"/><path class="cls-1" d="M385.92,98.49v0c0-2.62,2-3.9,5-3.9a10.32,10.32,0,0,1,3.25.5v-.29c0-1.72-1.05-2.64-3-2.64a8.4,8.4,0,0,0-3.46.76L387,90.7a10.42,10.42,0,0,1,4.56-1,5.41,5.41,0,0,1,4,1.36,5,5,0,0,1,1.31,3.73V102h-2.7v-1.51a4.92,4.92,0,0,1-3.94,1.77C387.94,102.23,385.92,100.92,385.92,98.49Zm8.3-.87V96.8a7.62,7.62,0,0,0-2.75-.48c-1.79,0-2.84.75-2.84,2v0c0,1.17,1,1.83,2.36,1.83C392.82,100.21,394.22,99.16,394.22,97.62Z"/></g></g></svg>