<svg xmlns="http://www.w3.org/2000/svg" width="247" height="56" viewBox="0 0 247 56">
    <g fill="none" fill-rule="nonzero">
        <path fill="#00AD68" d="M75.897 23.718H73v-4.086h2.87v-1.621c0-2.362.67-4.156 1.837-5.3 1.167-1.142 2.87-1.71 5.096-1.71a14.529 14.529 0 0 1 4.197.568v4.156c-.973-.34-2-.52-3.037-.53-1.972 0-2.997 1.015-2.997 3.263v1.174h5.994v4.086h-5.914V41H75.87l.027-17.282zM91 19h5v22h-5zM100 19.448h5.104v3.305c1.435-2.001 3.504-3.753 6.962-3.753 5.025 0 7.934 3.267 7.934 8.248V41h-5.104V28.756c0-3.35-1.732-5.261-4.767-5.261s-5.025 2-5.025 5.345v12.147H100v-21.54zM123 30.537v-.085c0-7.32 5.014-11.463 10.319-11.463a9.117 9.117 0 0 1 7.58 3.893V11H146v30.541h-5.1v-3.683c-1.643 2.3-3.959 4.142-7.581 4.142C128.1 42 123 37.858 123 30.537zm17.986 0v-.085c0-4.267-3.035-7.072-6.446-7.072-3.411 0-6.4 2.68-6.4 7.072v.085c0 4.267 2.949 7.072 6.4 7.072 3.45 0 6.446-2.845 6.446-7.072z"/>
        <path fill="#333E48" d="M149 19.084h5.127l4.395 14.896L163.357 19h4.299l4.835 14.98 4.466-14.896H182L174.88 41h-4.532l-4.874-14.826L160.554 41h-4.46zM186 19h5v22h-5zM195 19.448h5.11v3.305c1.433-2.001 3.502-3.753 6.959-3.753 5.016 0 7.931 3.267 7.931 8.248V41h-5.102V28.756c0-3.35-1.725-5.261-4.766-5.261-3.04 0-5.023 2-5.023 5.345v12.147H195v-21.54zM219 30.556v-.085c0-6.3 4.397-11.471 10.603-11.471C236.511 19 240 24.51 240 30.85c0 .458-.039.915-.084 1.419h-15.94c.535 3.588 3.039 5.595 6.245 5.595 2.427 0 4.152-.922 5.878-2.615l2.922 2.615a10.916 10.916 0 0 1-8.877 4.13C223.854 41.989 219 37.36 219 30.557zm16.094-1.627c-.328-3.269-2.22-5.798-5.504-5.798-3.038 0-5.15 2.38-5.633 5.804l11.137-.006z"/>
        <circle cx="93" cy="14" r="3" fill="#00AD68"/>
        <circle cx="188" cy="14" r="3" fill="#333E48"/>
        <path fill="#00AD68" d="M20 44c0-4.418 3.806-8 8.5-8s8.5 3.582 8.5 8-3.806 8-8.5 8c-4.693-.003-8.496-3.583-8.5-8z"/>
        <ellipse cx="47.5" cy="8" fill="#00AD68" rx="8.5" ry="8"/>
        <path fill="#00AD68" d="M0 8c0-4.418 3.806-8 8.5-8S17 3.582 17 8s-3.806 8-8.5 8C3.807 15.997.004 12.417 0 8zM20 8c0-4.414 3.799-7.994 8.489-8 4.69-.006 8.499 3.565 8.511 7.979.012 4.414-3.776 8.003-8.466 8.02-2.26.01-4.431-.83-6.033-2.331C20.901 12.167 20 10.128 20 8z"/>
        <path fill="#333E48" d="M50.537 37.298l-6.378-6.373a8.291 8.291 0 0 0-1.6-11.032 8.287 8.287 0 0 0-11.131.535 8.291 8.291 0 0 0-.535 11.135 8.287 8.287 0 0 0 11.03 1.6l6.37 6.379c.297.296.7.461 1.119.458a1.583 1.583 0 0 0 1.125-2.702zm-19.01-10.986a5.79 5.79 0 0 1 9.886-4.092 5.791 5.791 0 0 1-4.103 9.883 5.796 5.796 0 0 1-5.782-5.79z"/>
        <ellipse cx="18.5" cy="26" fill="#00AD68" rx="8.5" ry="8"/>
    </g>
</svg>
