<svg xmlns="http://www.w3.org/2000/svg" width="180" height="39" viewBox="0 0 180 39">
    <g fill="none" fill-rule="nonzero">
        <path fill="#00AD68" d="M56.863 17.56h-2.17v-3.025h2.15v-1.2c0-1.75.502-3.077 1.376-3.923.874-.847 2.15-1.267 3.818-1.267 1.065-.012 2.126.13 3.145.42v3.077a7.199 7.199 0 0 0-2.276-.392c-1.477 0-2.245.752-2.245 2.415v.87h4.49v3.025h-4.43v12.795h-3.878l.02-12.795zM68.179 14.067h3.746v16.288h-3.746zM74.922 14.398h3.824v2.448c1.075-1.482 2.625-2.779 5.216-2.779 3.764 0 5.944 2.419 5.944 6.106v10.182h-3.824V21.29c0-2.48-1.298-3.895-3.572-3.895-2.273 0-3.764 1.481-3.764 3.957v8.994h-3.824V14.398zM92.153 22.609v-.063c0-5.42 3.757-8.487 7.732-8.487a6.856 6.856 0 0 1 5.68 2.882V8.144h3.82v22.612h-3.82v-2.727c-1.232 1.703-2.967 3.067-5.68 3.067-3.91 0-7.732-3.067-7.732-8.487zm13.476 0v-.063c0-3.16-2.274-5.236-4.83-5.236s-4.795 1.985-4.795 5.236v.063c0 3.159 2.21 5.235 4.795 5.235s4.83-2.105 4.83-5.235z"/>
        <path fill="#FFF" d="M111.633 14.13h3.841l3.293 11.028 3.623-11.091h3.22l3.623 11.091 3.346-11.029h3.778l-5.335 16.226h-3.394l-3.652-10.976-3.686 10.976h-3.342zM139.354 14.067h3.746v16.288h-3.746zM146.097 14.398h3.828v2.448c1.074-1.482 2.624-2.779 5.214-2.779 3.759 0 5.942 2.419 5.942 6.106v10.182h-3.823V21.29c0-2.48-1.292-3.895-3.57-3.895-2.278 0-3.763 1.481-3.763 3.957v8.994h-3.828V14.398zM164.078 22.623v-.063c0-4.665 3.294-8.493 7.944-8.493 5.175 0 7.79 4.08 7.79 8.774 0 .338-.03.677-.063 1.05h-11.942c.4 2.656 2.276 4.142 4.678 4.142 1.818 0 3.111-.682 4.404-1.936l2.19 1.936a8.217 8.217 0 0 1-6.652 3.059c-4.712-.005-8.349-3.431-8.349-8.47zm12.058-1.205c-.246-2.42-1.664-4.293-4.124-4.293-2.276 0-3.858 1.762-4.22 4.298l8.344-.005z"/>
        <ellipse cx="69.677" cy="10.365" fill="#00AD68" rx="2.248" ry="2.221"/>
        <ellipse cx="140.852" cy="10.365" fill="#FFF" rx="2.248" ry="2.221"/>
        <path fill="#00AD68" d="M14.984 32.576c0-3.27 2.852-5.923 6.369-5.923s6.368 2.652 6.368 5.923S24.87 38.5 21.353 38.5c-3.516-.002-6.366-2.653-6.369-5.923z"/>
        <ellipse cx="35.588" cy="5.923" fill="#00AD68" rx="6.368" ry="5.923"/>
        <path fill="#00AD68" d="M0 5.923C0 2.652 2.851 0 6.368 0c3.517 0 6.369 2.652 6.369 5.923s-2.852 5.923-6.369 5.923C2.852 11.843.003 9.193 0 5.923zM14.984 5.923c0-3.268 2.846-5.919 6.36-5.923 3.514-.004 6.368 2.64 6.377 5.907.01 3.268-2.83 5.926-6.343 5.939-1.694.006-3.32-.615-4.52-1.727-1.2-1.111-1.874-2.621-1.874-4.196z"/>
        <path fill="#FFF" d="M37.863 27.614l-4.778-4.718a6.089 6.089 0 0 0-1.199-8.168 6.263 6.263 0 0 0-8.34.396 6.085 6.085 0 0 0-.4 8.244c2.034 2.44 5.61 2.952 8.263 1.185l4.773 4.723c.222.22.524.341.838.339.48.001.914-.284 1.099-.722a1.162 1.162 0 0 0-.256-1.279zm-14.242-8.133A4.287 4.287 0 0 1 26.3 15.52a4.374 4.374 0 0 1 4.727.931 4.25 4.25 0 0 1 .937 4.674 4.338 4.338 0 0 1-4.01 2.643c-2.393-.005-4.33-1.923-4.333-4.287z"/>
        <ellipse cx="13.86" cy="19.25" fill="#00AD68" rx="6.368" ry="5.923"/>
    </g>
</svg>
