<svg xmlns="http://www.w3.org/2000/svg" width="223" height="44" viewBox="0 0 223 44">
    <g fill="none" fill-rule="evenodd" opacity=".5">
        <g fill="#86929A" fill-rule="nonzero">
            <path d="M16.741 5.638a1.105 1.105 0 0 0-1-.638h-12c-.449 0-.852.27-1.018.683C-.738 14.125.86 20.125.922 20.356c0 .066 1.615 6.227 8.011 6.762v14.924H4.147a.827.827 0 0 0-.83.823c0 .454.372.823.83.823h11.237c.458 0 .83-.369.83-.823a.827.827 0 0 0-.83-.823h-4.79V27.126a8.562 8.562 0 0 0 6.392-3.461 10.14 10.14 0 0 0 1.964-5.42A26.245 26.245 0 0 0 16.74 5.637zm.552 12.487a8.511 8.511 0 0 1-1.635 4.552 6.949 6.949 0 0 1-5.812 2.836c-5.84-.004-7.264-5.326-7.314-5.569 0-.053-1.46-5.544 1.59-13.298H15.38a24.675 24.675 0 0 1 1.913 11.48z"/>
            <path d="M4.153 14.586a.174.174 0 0 0-.154.152 14.15 14.15 0 0 0 .17 4.893s1.138 4.61 6.048 4.61a5.829 5.829 0 0 0 4.853-2.366 6.96 6.96 0 0 0 1.332-3.577.074.074 0 0 0-.037-.069.075.075 0 0 0-.079.003c-9.443 6.005-6.189-4.28-12.133-3.646z"/>
        </g>
        <g fill="#86929A" fill-rule="nonzero">
            <path d="M116.268 24.797c2.347-2.562 2.32-6.61 2.32-6.793l-.31-11.673c.024-.704-.482-1.297-1.136-1.331h-11.298c-.655.018-1.173.602-1.16 1.306l-.297 11.59c0 .175-.097 4.297 2.238 6.893 1.083 1.19 2.543 1.9 4.089 1.989V41.87h-3.154c-.427 0-.773.373-.773.832 0 .46.346.832.773.832h7.85c.427 0 .773-.372.773-.832 0-.46-.346-.832-.773-.832h-3.15v-15.1c1.513-.117 2.936-.817 4.008-1.973zm-10.335-6.843l.301-11.29h10.521l.298 11.378c0 .033.023 3.515-1.875 5.59-.998 1.045-2.355 1.596-3.745 1.523-1.368.072-2.702-.474-3.68-1.506-1.89-2.084-1.82-5.657-1.82-5.695z"/>
            <path d="M115.909 18.483l-.027-1.049c0-.058-.047-.087-.093-.112-1.21-.666-2.114-.441-4.004.358-2.675 1.135-4.086-.703-4.596-.965a.058.058 0 0 0-.065-.004.068.068 0 0 0-.032.062l-.042 1.643s-.151 5.628 4.39 5.628c4.542 0 4.469-5.561 4.469-5.561z"/>
        </g>
        <g fill="#86929A" fill-rule="nonzero">
            <path d="M220.926 32.461a8.109 8.109 0 0 0 1.41-4.802l-.37-13.985a1.196 1.196 0 0 0-1.19-1.174h-15.078c-.66.002-1.196.54-1.198 1.204v14.712a8.058 8.058 0 0 0 .902 3.728 8.18 8.18 0 0 0 7.186 4.514v5.186h-4.861a.834.834 0 0 0-.832.836c0 .462.373.836.832.836h11.386c.459 0 .831-.374.831-.836a.834.834 0 0 0-.831-.836h-4.862v-5.25a9.354 9.354 0 0 0 6.675-4.133zm-14.052-1.086a6.37 6.37 0 0 1-.71-2.955V14.172h14.159l.349 13.529a6.418 6.418 0 0 1-1.11 3.803 7.72 7.72 0 0 1-6.537 3.494c-3.51 0-5.281-1.968-6.15-3.623z"/>
            <path d="M218.518 30.823c.655-1.012.987-2.2.952-3.406l-.037-1.597a.083.083 0 1 0-.137-.063c-4.674 3.653-8.417.535-11.885 2.207a.08.08 0 0 0-.046.075c.055.893.259 1.77.603 2.596a5.474 5.474 0 0 0 5.148 3.218 6.293 6.293 0 0 0 5.402-3.03z"/>
        </g>
        <g fill="#86929A" fill-rule="nonzero">
            <path d="M169.688 1.91c-.015-.78-.617-1.406-1.357-1.41h-11.959c-.758 0-1.372.648-1.372 1.446l1.16 14.125c.027.407.691 9.476 5.593 10.356l-.182 15.713h-4.449c-.427 0-.773.365-.773.815 0 .45.346.815.773.815h10.46c.426 0 .772-.365.772-.815 0-.45-.346-.815-.773-.815h-4.464l.17-15.71c4.716-.887 5.535-9.846 5.57-10.27l.831-14.181v-.07zm-2.358 14.128a22.676 22.676 0 0 1-.958 4.592c-.936 2.819-2.227 4.245-3.835 4.245-4.116 0-4.831-8.829-4.831-8.93l-1.16-13.815h11.596l-.812 13.908z"/>
            <path d="M162.472 23.51c2.956 0 3.478-6.184 3.478-6.184l.344-6.07a12.795 12.795 0 0 0-7.641.093l-.116.037.467 5.874s.38 6.25 3.468 6.25z"/>
        </g>
        <g fill="#86929A" fill-rule="nonzero">
            <path d="M68.965 18.014l-2.407-11.78a1.493 1.493 0 0 0-1.46-1.18h-9.656c-.71.009-1.315.511-1.447 1.201L51.65 18.5a5.414 5.414 0 0 0 .37 3.23c1.25 3.013 4.195 4.998 7.485 5.046v14.912h-3.406a.827.827 0 0 0-.832.823c0 .455.373.823.832.823h8.446c.46 0 .832-.368.832-.823a.827.827 0 0 0-.832-.823h-3.393v-14.97c3.967-.464 6.162-3.127 7.156-4.782a5.47 5.47 0 0 0 .657-3.922zm-2.079 3.083c-1.119 1.848-3.219 4.07-6.944 4.07-3.726 0-5.569-2.239-6.4-4.116a3.796 3.796 0 0 1-.258-2.263l2.3-12.088h9.373l2.39 11.643a3.843 3.843 0 0 1-.461 2.754z"/>
            <path stroke="#F9F9F9" stroke-width="1.346" d="M65.298 14.989a.636.636 0 0 0-.416-.47c-3.269-1.123-3.643 4.026-9.98 4.24a.31.31 0 0 0-.308.26 3.323 3.323 0 0 0 .27 1.736 5.375 5.375 0 0 0 5.19 3.313 6.29 6.29 0 0 0 5.543-3.226c.437-.728.586-1.59.416-2.42l-.715-3.433z"/>
        </g>
    </g>
</svg>
