<svg xmlns="http://www.w3.org/2000/svg" width="14" height="25" viewBox="0 0 14 25">
    <g fill="#86929A" fill-rule="nonzero">
        <path d="M12.86 15.92a6.554 6.554 0 0 0 1.104-3.83L13.674.937a.945.945 0 0 0-.93-.937H.937A.952.952 0 0 0 0 .96v11.733a6.523 6.523 0 0 0 .707 2.974c1.075 2.178 3.242 3.564 5.626 3.6v4.136H2.527a.66.66 0 0 0-.652.667.66.66 0 0 0 .652.667h8.914a.66.66 0 0 0 .651-.667.66.66 0 0 0-.651-.667H7.635v-4.186a7.308 7.308 0 0 0 5.225-3.297zm-11-.867a5.158 5.158 0 0 1-.558-2.356V1.333h11.086l.274 10.79a5.188 5.188 0 0 1-.87 3.034c-1.132 1.759-3.06 2.809-5.118 2.786-2.747 0-4.134-1.57-4.815-2.89z"/>
        <path d="M10.975 14.613a4.81 4.81 0 0 0 .746-2.716l-.03-1.274a.067.067 0 0 0-.038-.06.064.064 0 0 0-.069.01c-3.66 2.914-6.59.427-9.305 1.76a.064.064 0 0 0-.036.06c.043.713.203 1.412.472 2.07.717 1.609 2.305 2.62 4.031 2.567 1.726.007 3.33-.91 4.23-2.417z"/>
    </g>
</svg>
