<svg xmlns="http://www.w3.org/2000/svg" width="54" height="64" viewBox="0 0 54 64">
    <g fill="none" fill-rule="evenodd">
        <path fill="#C9A564" d="M27 12.267l-3.142 1.737a1 1 0 0 1-1.47-1.036L23 9.21l-2.64-2.707a1 1 0 0 1 .564-1.686l3.604-.551L26.095.929a1 1 0 0 1 1.81 0l1.567 3.338 3.604.55a1 1 0 0 1 .565 1.687L31 9.211l.613 3.757a1 1 0 0 1-1.471 1.036L27 12.267z"/>
        <path fill="#B5664A" d="M47 24.267l-3.142 1.737a1 1 0 0 1-1.47-1.036L43 21.21l-2.64-2.707a1 1 0 0 1 .564-1.686l3.604-.551 1.567-3.338a1 1 0 0 1 1.81 0l1.567 3.338 3.604.55a1 1 0 0 1 .565 1.687L51 21.211l.613 3.757a1 1 0 0 1-1.471 1.036L47 24.267z"/>
        <g fill-rule="nonzero">
            <path fill="#86929A" d="M33.741 25.638a1.105 1.105 0 0 0-1-.638h-12c-.449 0-.852.27-1.018.683-3.461 8.442-1.863 14.442-1.801 14.673 0 .066 1.615 6.227 8.011 6.762v14.924h-4.786a.827.827 0 0 0-.83.823c0 .454.372.823.83.823h11.237c.458 0 .83-.369.83-.823a.827.827 0 0 0-.83-.823h-4.79V47.126a8.562 8.562 0 0 0 6.392-3.461 10.14 10.14 0 0 0 1.964-5.42 26.245 26.245 0 0 0-2.209-12.607zm.552 12.487a8.511 8.511 0 0 1-1.635 4.552 6.949 6.949 0 0 1-5.812 2.836c-5.84-.004-7.264-5.326-7.314-5.569 0-.053-1.46-5.544 1.59-13.298H32.38a24.675 24.675 0 0 1 1.913 11.48z"/>
            <path fill="#E13943" d="M21.132 34.932a.161.161 0 0 0-.143.141 13.132 13.132 0 0 0 .158 4.542s1.056 4.278 5.613 4.278a5.41 5.41 0 0 0 4.503-2.197 6.46 6.46 0 0 0 1.237-3.319.069.069 0 0 0-.035-.063.07.07 0 0 0-.073.002c-8.764 5.573-5.744-3.972-11.26-3.384z"/>
        </g>
        <path fill="#A5B2B3" d="M7 24.267l-3.142 1.737a1 1 0 0 1-1.47-1.036L3 21.21.36 18.504a1 1 0 0 1 .564-1.686l3.604-.551 1.567-3.338a1 1 0 0 1 1.81 0l1.567 3.338 3.604.55a1 1 0 0 1 .565 1.687L11 21.211l.613 3.757a1 1 0 0 1-1.471 1.036L7 24.267z"/>
    </g>
</svg>
