<svg xmlns="http://www.w3.org/2000/svg" width="15" height="31" viewBox="0 0 15 31">
    <g fill="none" fill-rule="nonzero">
        <path fill="#86929A" d="M13.08.511A.867.867 0 0 0 12.292 0H2.866a.858.858 0 0 0-.799.547C-.653 7.311.603 12.12.652 12.304c0 .053 1.269 4.99 6.294 5.419V29.68h-3.76a.656.656 0 0 0-.652.66c0 .364.292.659.652.659h8.827c.36 0 .652-.295.652-.66a.656.656 0 0 0-.652-.66H8.25V17.73c2-.121 3.84-1.138 5.022-2.774a8.227 8.227 0 0 0 1.542-4.343A21.402 21.402 0 0 0 13.08.51zm.433 10.006a6.906 6.906 0 0 1-1.285 3.647 5.422 5.422 0 0 1-4.565 2.273c-4.588-.004-5.706-4.268-5.746-4.462 0-.043-1.147-4.443 1.25-10.656h8.843a20.125 20.125 0 0 1 1.503 9.198z"/>
        <path fill="#B22626" d="M2.87 7.68a.138.138 0 0 0-.121.123 11.561 11.561 0 0 0 .134 3.92s.893 3.695 4.75 3.695a4.548 4.548 0 0 0 3.813-1.897 5.645 5.645 0 0 0 1.046-2.866.06.06 0 0 0-.03-.055.058.058 0 0 0-.06.003c-7.42 4.811-4.863-3.43-9.532-2.922z"/>
    </g>
</svg>
