<svg xmlns="http://www.w3.org/2000/svg" width="15" height="31" viewBox="0 0 15 31">
    <g fill="#86929A" fill-rule="nonzero">
        <path d="M13.155.511a.895.895 0 0 0-.81-.511h-9.72A.884.884 0 0 0 1.8.547C-1.003 7.311.29 12.12.34 12.304c0 .053 1.309 4.99 6.49 5.419V29.68H2.954a.666.666 0 0 0-.672.66c0 .364.3.659.672.659h9.101a.666.666 0 0 0 .673-.66.666.666 0 0 0-.673-.66h-3.88V17.73a6.955 6.955 0 0 0 5.178-2.774 8.072 8.072 0 0 0 1.59-4.343A20.831 20.831 0 0 0 13.155.51zm.447 10.006a6.774 6.774 0 0 1-1.325 3.647 5.65 5.65 0 0 1-4.707 2.273c-4.73-.004-5.883-4.268-5.924-4.462 0-.043-1.183-4.443 1.288-10.656h9.118a19.583 19.583 0 0 1 1.55 9.198z"/>
        <path d="M3.232 8.023a.14.14 0 0 0-.123.126 12.097 12.097 0 0 0 .136 4.042s.907 3.807 4.823 3.807a4.593 4.593 0 0 0 3.87-1.954A5.875 5.875 0 0 0 13 11.09a.062.062 0 0 0-.03-.057.058.058 0 0 0-.063.002c-7.53 4.96-4.935-3.535-9.675-3.012z"/>
    </g>
</svg>
