<svg xmlns="http://www.w3.org/2000/svg" width="12" height="31" viewBox="0 0 12 31">
    <g fill="none" fill-rule="nonzero">
        <path fill="#86929A" d="M10.023 15.863c1.917-2.053 1.895-5.296 1.895-5.443l-.253-9.353c.02-.564-.394-1.04-.928-1.067h-9.23C.971.015.547.482.558 1.047l-.243 9.286c0 .14-.08 3.444 1.828 5.524a4.938 4.938 0 0 0 3.341 1.593v12.093H2.908c-.348 0-.631.299-.631.667 0 .368.283.667.631.667h6.414c.349 0 .632-.299.632-.667 0-.368-.283-.667-.632-.667H6.748v-12.1a5.033 5.033 0 0 0 3.275-1.58zM1.58 10.38l.246-9.047h8.596l.243 9.117c0 .027.02 2.817-1.531 4.48a3.986 3.986 0 0 1-3.06 1.22 3.901 3.901 0 0 1-3.007-1.207C1.522 13.273 1.58 10.41 1.58 10.38z"/>
        <path fill="#F8A99F" d="M9.73 10.803l-.023-.84c0-.046-.038-.07-.075-.09-.989-.533-1.728-.353-3.272.287-2.185.91-3.338-.563-3.755-.773a.048.048 0 0 0-.053-.003.054.054 0 0 0-.026.05l-.034 1.316s-.124 4.51 3.587 4.51c3.71 0 3.65-4.457 3.65-4.457z"/>
    </g>
</svg>
