<svg xmlns="http://www.w3.org/2000/svg" width="24" height="20" viewBox="0 0 24 20">
    <path fill="#333E48" fill-rule="nonzero" d="M16.036.254V.25h1.125l.412.082c.274.054.523.124.746.21.224.087.44.188.65.303.209.116.398.233.569.353.168.118.32.244.454.377.133.134.34.168.621.103.281-.065.584-.155.91-.27.324-.116.645-.245.962-.39.318-.144.51-.236.58-.275l.108-.064.005-.007.021-.01.022-.012.022-.01.021-.011.005-.007.006-.004.007-.004.004-.007.021-.006.022-.005-.004.033-.007.032-.01.033-.011.032-.011.022-.011.021-.01.033a.753.753 0 0 0-.022.086c-.008.037-.076.18-.206.433s-.292.509-.487.769-.37.456-.524.588a4.98 4.98 0 0 0-.31.282.929.929 0 0 1-.183.151l-.108.072-.022.01-.022.011-.004.007-.006.004-.007.004-.004.007-.022.01-.021.012-.005.006-.006.004-.007.005-.004.006-.004.007-.007.004-.006.004-.005.007h.108l.606-.13c.404-.087.79-.191 1.158-.314l.584-.195.065-.021.033-.011.022-.011.021-.01.022-.012.021-.01.044-.007.043-.004v.043l-.01.004-.012.007-.004.006-.006.005-.007.004-.004.007-.005.006-.006.004-.007.005-.004.006-.004.007-.007.004-.01.022-.011.021-.007.005-.275.368c-.18.242-.277.365-.292.367-.014.005-.035.026-.06.065-.025.04-.178.202-.46.483-.28.281-.556.532-.826.751-.271.22-.408.492-.411.814-.004.32-.021.682-.05 1.086s-.083.84-.162 1.31c-.08.469-.202.999-.368 1.59a14.463 14.463 0 0 1-.606 1.732 13.49 13.49 0 0 1-.747 1.515c-.26.447-.497.826-.714 1.136-.216.31-.436.602-.66.876-.224.275-.506.583-.848.927l-.563.562c-.033.032-.174.15-.424.355-.248.207-.515.413-.8.62a9.262 9.262 0 0 1-.784.512 25 25 0 0 1-.862.47c-.334.177-.696.342-1.086.493-.39.152-.8.293-1.233.422-.433.13-.852.231-1.256.303-.404.073-.862.134-1.374.184l-.768.076v.011H6.86v-.01l-.184-.012a9.865 9.865 0 0 1-.303-.021c-.079-.007-.378-.047-.898-.12-.52-.071-.927-.144-1.223-.216-.295-.072-.735-.209-1.32-.411a12.844 12.844 0 0 1-1.5-.612 59.92 59.92 0 0 1-.778-.39 5.53 5.53 0 0 1-.351-.2l-.195-.118-.004-.007-.007-.004-.006-.004-.004-.007-.022-.01-.022-.011-.004-.007-.007-.004-.006-.005-.004-.006-.005-.007-.006-.004H0v-.043l.022.004.021.007.098.01c.065.008.241.018.53.033a9.764 9.764 0 0 0 1.915-.097c.34-.051.74-.138 1.201-.26a8.874 8.874 0 0 0 1.273-.437c.385-.17.659-.298.822-.381.162-.083.408-.235.74-.46l.498-.335.004-.006.007-.004.006-.005.005-.006.004-.007.006-.004.007-.004.004-.007.022-.006.021-.005.005-.021.006-.022.007-.004.004-.007-.173-.01a81.148 81.148 0 0 1-.335-.022 3.253 3.253 0 0 1-.509-.098 4.881 4.881 0 0 1-.747-.26 5.756 5.756 0 0 1-.779-.41 3.834 3.834 0 0 1-.547-.397 9.496 9.496 0 0 1-.433-.441 4.379 4.379 0 0 1-.459-.591 5.309 5.309 0 0 1-.372-.699l-.18-.394-.01-.032-.011-.033-.007-.021-.004-.022.032.004.033.007.238.032c.159.022.407.029.746.022a5.78 5.78 0 0 0 .704-.043c.13-.022.209-.037.238-.044l.043-.01.054-.011.054-.011.005-.007.006-.004.007-.004.004-.007-.043-.01-.044-.012-.043-.01-.043-.011-.043-.011a3.977 3.977 0 0 1-.152-.043 8.3 8.3 0 0 1-.584-.238 4.468 4.468 0 0 1-.758-.4 5.23 5.23 0 0 1-.536-.427 6.125 6.125 0 0 1-.557-.602 4.33 4.33 0 0 1-.54-.855 5.2 5.2 0 0 1-.358-.93 5.024 5.024 0 0 1-.155-.898l-.04-.455.022.004.022.007.021.01.022.012.022.01.021.011.336.152c.223.1.501.187.833.26.332.072.53.111.595.118l.098.011h.194l-.004-.006-.006-.005-.007-.004-.004-.006-.005-.007-.006-.004-.007-.005-.004-.006-.022-.01-.021-.012-.005-.006-.006-.005-.007-.004-.004-.006-.022-.011-.021-.011-.004-.006-.187-.139a2.838 2.838 0 0 1-.372-.353c-.13-.144-.26-.296-.39-.454a3.51 3.51 0 0 1-.346-.509 6.166 6.166 0 0 1-.32-.688 4.886 4.886 0 0 1-.35-1.67c-.008-.275 0-.51.021-.704.022-.195.065-.415.13-.66.065-.246.159-.505.281-.78l.184-.41.011-.033.01-.033.007-.004.005-.006.004-.007.007-.004.006.004.004.007.005.006.006.004.007.005.004.006.004.007.007.004.01.022.011.021.007.005.004.006.292.325c.195.216.426.458.693.725.267.267.415.405.444.415a.317.317 0 0 1 .108.1c.043.053.187.18.433.383.245.202.566.436.963.703.396.267.836.53 1.32.79.483.26 1.002.494 1.558.704.555.209.945.346 1.169.41.223.066.606.149 1.147.25.54.1.948.166 1.222.195.274.028.462.045.563.05l.151.004-.004-.033-.006-.032-.044-.27a5.086 5.086 0 0 1-.043-.758c0-.325.025-.624.076-.898A5.32 5.32 0 0 1 12 3.442c.101-.281.2-.507.296-.677.099-.169.227-.362.386-.578.158-.216.364-.44.616-.67.253-.232.541-.437.866-.618.325-.18.624-.317.898-.41.274-.095.505-.156.693-.185.187-.029.281-.045.281-.05z"/>
</svg>
