<svg xmlns="http://www.w3.org/2000/svg" width="14" height="31" viewBox="0 0 14 31">
    <g fill="#86929A" fill-rule="nonzero">
        <path d="M13.674 10.428L11.79.989a1.176 1.176 0 0 0-1.142-.946h-7.56c-.556.007-1.03.41-1.134.963L.117 10.817a4.432 4.432 0 0 0 .29 2.589c.98 2.414 3.284 4.004 5.86 4.043v11.948H3.601a.655.655 0 0 0-.651.66c0 .364.291.66.65.66h6.613c.36 0 .652-.296.652-.66a.655.655 0 0 0-.652-.66H7.557V17.403c3.106-.373 4.825-2.507 5.603-3.832a4.471 4.471 0 0 0 .514-3.143zm-1.627 2.47c-.876 1.48-2.52 3.262-5.438 3.262-2.917 0-4.36-1.794-5.01-3.298a3.107 3.107 0 0 1-.202-1.814l1.8-9.686h7.339l1.872 9.33a3.141 3.141 0 0 1-.361 2.206z"/>
        <path stroke="#F9F9F9" stroke-width="1.1" d="M10.803 8.004a.506.506 0 0 0-.326-.376c-2.559-.9-2.852 3.225-7.814 3.397a.245.245 0 0 0-.24.208c-.053.474.02.955.211 1.391a4.205 4.205 0 0 0 4.063 2.655 4.907 4.907 0 0 0 4.34-2.585 2.76 2.76 0 0 0 .326-1.94l-.56-2.75z"/>
    </g>
</svg>
