<svg xmlns="http://www.w3.org/2000/svg" width="18" height="64" viewBox="0 0 18 64">
    <g fill="none" fill-rule="evenodd">
        <g fill-rule="nonzero">
            <path fill="#86929A" d="M17.3 38.641l-2.361-11.548a1.464 1.464 0 0 0-1.431-1.158H4.04a1.46 1.46 0 0 0-1.418 1.178l-2.3 12.004a5.308 5.308 0 0 0 .363 3.168c1.226 2.953 4.113 4.899 7.338 4.947V61.85H4.685a.811.811 0 0 0-.815.807c0 .445.365.807.815.807h8.28c.45 0 .816-.362.816-.807a.811.811 0 0 0-.815-.807H9.639V47.175c3.89-.456 6.042-3.066 7.016-4.688.69-1.159.92-2.53.644-3.846zm-2.04 3.022c-1.096 1.812-3.155 3.991-6.808 3.991-3.652 0-5.458-2.195-6.274-4.035a3.721 3.721 0 0 1-.253-2.22L4.18 27.55h9.19l2.343 11.415a3.768 3.768 0 0 1-.452 2.7z"/>
            <path fill="#FFDC6E" stroke="#FFF" stroke-width="1.346" d="M13.703 35.675a.624.624 0 0 0-.407-.46c-3.205-1.101-3.572 3.947-9.785 4.157a.305.305 0 0 0-.301.254c-.066.58.025 1.168.265 1.703a5.27 5.27 0 0 0 5.088 3.248 6.167 6.167 0 0 0 5.434-3.164c.429-.713.574-1.559.408-2.372l-.702-3.366z"/>
        </g>
        <path fill="#E13943" fill-rule="nonzero" d="M8.321 14.369l-.481-.448C3.72 10.104 1 7.586 1 4.496 1 1.978 2.936 0 5.4 0 6.792 0 8.128.662 9 1.708 9.872.662 11.208 0 12.6 0 15.064 0 17 1.978 17 4.496c0 3.09-2.72 5.608-6.84 9.433l-.48.442a1 1 0 0 1-1.359-.002z"/>
    </g>
</svg>
